<?xml version="1.0" encoding="utf-8"?>
<!-- Generator: Adobe Illustrator 18.0.0, SVG Export Plug-In . SVG Version: 6.00 Build 0)  -->
<!DOCTYPE svg PUBLIC "-//W3C//DTD SVG 1.1//EN" "http://www.w3.org/Graphics/SVG/1.1/DTD/svg11.dtd">
<svg version="1.1" xmlns="http://www.w3.org/2000/svg" xmlns:xlink="http://www.w3.org/1999/xlink" x="0px" y="0px"
	 viewBox="0 0 960 524" enable-background="new 0 0 960 524" xml:space="preserve">
<g id="Background">
	<rect fill="#204056" width="960" height="524"/>
</g>
<g id="Layer_1">
	<g>
		<path fill="#BCBEC0" d="M318.9,252.2c0.2-0.1,0.3-0.2,0.4-0.2s0.2,0,0.3,0c0.2,0,0.4,0.1,0.6,0.3c0.2,0.2,0.2,0.4,0.2,0.6
			c0,0.2-0.1,0.4-0.2,0.6c-0.2,0.1-0.3,0.3-0.6,0.4l-5.6,2.8l5.6,2.8c0.2,0.1,0.4,0.2,0.6,0.4c0.2,0.1,0.2,0.3,0.2,0.6
			c0,0.2-0.1,0.4-0.2,0.6c-0.2,0.2-0.4,0.3-0.6,0.3c-0.1,0-0.2,0-0.3,0c-0.1,0-0.3-0.1-0.4-0.2l-6-3c-0.2-0.1-0.3-0.2-0.5-0.3
			s-0.3-0.2-0.4-0.3c-0.1-0.1-0.2-0.2-0.3-0.4c-0.1-0.1-0.1-0.3-0.1-0.5c0-0.2,0-0.3,0.1-0.5c0.1-0.1,0.2-0.3,0.3-0.4
			c0.1-0.1,0.2-0.2,0.4-0.3c0.1-0.1,0.3-0.2,0.5-0.3L318.9,252.2z"/>
		<path fill="#BCBEC0" d="M324.8,262.5c-0.2-0.1-0.3-0.3-0.4-0.4c-0.1-0.1-0.2-0.3-0.2-0.5c0-0.1,0-0.2,0.1-0.3s0.1-0.2,0.2-0.3
			c0.1-0.1,0.3-0.2,0.5-0.2c0.2,0,0.5,0.1,0.9,0.4c0.5,0.3,1,0.6,1.5,0.7c0.5,0.2,1.2,0.2,1.9,0.2c1.1,0,1.9-0.2,2.5-0.6
			c0.6-0.4,0.9-0.9,0.9-1.7c0-0.6-0.2-1-0.5-1.3c-0.3-0.3-0.9-0.5-1.6-0.6l-2.1-0.2c-1.2-0.1-2.2-0.4-2.8-1c-0.7-0.6-1-1.4-1-2.4
			c0-0.6,0.1-1.1,0.4-1.6c0.2-0.5,0.6-0.9,1-1.2s0.9-0.6,1.5-0.7c0.6-0.2,1.2-0.3,1.9-0.3c0.7,0,1.4,0.1,2,0.2
			c0.6,0.1,1.1,0.3,1.6,0.6c0.2,0.1,0.3,0.2,0.4,0.2c0.1,0.1,0.2,0.1,0.2,0.2c0.1,0.1,0.1,0.2,0.1,0.2s0,0.2,0,0.2
			c0,0.1,0,0.2-0.1,0.3c0,0.1-0.1,0.2-0.2,0.2c-0.2,0.2-0.4,0.3-0.6,0.3c-0.1,0-0.2,0-0.3-0.1c-0.1,0-0.2-0.1-0.4-0.2
			c-0.4-0.2-0.9-0.4-1.3-0.5s-1-0.2-1.5-0.2c-0.9,0-1.6,0.2-2.1,0.5s-0.7,0.9-0.7,1.6c0,0.6,0.2,1,0.5,1.3c0.4,0.3,0.9,0.5,1.7,0.5
			l2.1,0.2c0.6,0.1,1.1,0.1,1.5,0.3c0.5,0.1,0.9,0.3,1.2,0.6c0.3,0.3,0.6,0.6,0.8,1s0.3,0.9,0.3,1.5c0,0.6-0.1,1.2-0.4,1.7
			c-0.3,0.5-0.6,0.9-1.1,1.2c-0.5,0.3-1,0.6-1.7,0.8c-0.6,0.2-1.3,0.3-2.1,0.3c-1,0-1.8-0.1-2.5-0.3
			C326,263.3,325.4,263,324.8,262.5z"/>
		<path fill="#BCBEC0" d="M337.5,257.2c0-1.1,0.1-2,0.4-2.9c0.3-0.8,0.7-1.5,1.2-2c0.5-0.5,1.1-1,1.8-1.2c0.7-0.3,1.4-0.4,2.3-0.4
			c0.6,0,1.2,0.1,1.7,0.3c0.5,0.2,1,0.4,1.4,0.8c0.3,0.2,0.5,0.4,0.7,0.6c0.2,0.2,0.2,0.4,0.2,0.6c0,0.2-0.1,0.4-0.3,0.6
			c-0.2,0.2-0.4,0.2-0.6,0.2c-0.1,0-0.3,0-0.4-0.1c-0.1-0.1-0.3-0.2-0.5-0.4c-0.2-0.2-0.4-0.3-0.6-0.4c-0.2-0.1-0.4-0.2-0.5-0.3
			c-0.2-0.1-0.4-0.1-0.5-0.2c-0.2,0-0.4,0-0.6,0c-0.6,0-1.2,0.1-1.7,0.4c-0.5,0.2-0.9,0.6-1.2,1.1c-0.1,0.2-0.3,0.4-0.4,0.7
			c-0.1,0.2-0.2,0.5-0.3,0.8s-0.1,0.6-0.1,0.9c0,0.3,0,0.7,0,1.1s0,0.8,0,1.1c0,0.3,0.1,0.6,0.1,0.9s0.2,0.5,0.3,0.8
			s0.2,0.5,0.4,0.7c0.3,0.5,0.8,0.8,1.2,1.1c0.5,0.2,1.1,0.4,1.7,0.4c0.2,0,0.4,0,0.6,0c0.2,0,0.4-0.1,0.6-0.1
			c0.2-0.1,0.4-0.2,0.5-0.3c0.2-0.1,0.4-0.3,0.6-0.4c0.2-0.1,0.3-0.3,0.5-0.4c0.2-0.1,0.3-0.1,0.4-0.1c0.2,0,0.4,0.1,0.6,0.2
			c0.2,0.2,0.3,0.4,0.3,0.6c0,0.2-0.1,0.4-0.2,0.6c-0.2,0.2-0.4,0.4-0.7,0.6c-0.4,0.3-0.9,0.6-1.4,0.8s-1.1,0.3-1.7,0.3
			c-0.8,0-1.6-0.1-2.3-0.4c-0.7-0.3-1.3-0.7-1.8-1.2c-0.5-0.5-0.9-1.2-1.2-2C337.6,259.3,337.5,258.3,337.5,257.2z"/>
		<path fill="#BCBEC0" d="M352.8,252.4c0.2-0.3,0.4-0.5,0.6-0.7c0.3-0.2,0.5-0.4,0.8-0.5s0.6-0.3,1-0.3c0.3-0.1,0.7-0.1,1-0.1
			c0.5,0,0.9,0,1.2,0.1c0.4,0.1,0.7,0.3,1.1,0.5c0.2,0.1,0.4,0.3,0.5,0.4c0.1,0.2,0.2,0.3,0.2,0.5c0,0.1,0,0.2-0.1,0.4
			c-0.1,0.1-0.1,0.2-0.2,0.3c-0.2,0.2-0.4,0.3-0.7,0.3c-0.1,0-0.2,0-0.4-0.1s-0.3-0.1-0.5-0.3c-0.2-0.1-0.5-0.3-0.8-0.3
			c-0.3-0.1-0.5-0.1-0.8-0.1c-0.5,0-0.9,0.1-1.3,0.3c-0.4,0.2-0.7,0.4-1,0.7c-0.3,0.3-0.5,0.7-0.6,1.1c-0.1,0.4-0.2,0.9-0.2,1.4v6.6
			c0,0.2,0,0.4,0,0.5c0,0.1-0.1,0.2-0.1,0.4c-0.1,0.1-0.2,0.2-0.3,0.3c-0.1,0.1-0.3,0.1-0.5,0.1s-0.3,0-0.5-0.1
			c-0.1-0.1-0.2-0.2-0.3-0.3c-0.1-0.1-0.1-0.2-0.1-0.4c0-0.1,0-0.3,0-0.5V252c0-0.2,0-0.4,0-0.5c0-0.1,0.1-0.2,0.1-0.4
			c0.1-0.1,0.2-0.2,0.3-0.3c0.1-0.1,0.3-0.1,0.5-0.1s0.3,0,0.5,0.1c0.1,0.1,0.2,0.2,0.3,0.3c0.1,0.1,0.1,0.2,0.1,0.4s0,0.3,0,0.5
			V252.4z"/>
		<path fill="#BCBEC0" d="M361.6,246c0-0.4,0.1-0.7,0.4-0.9c0.2-0.2,0.6-0.4,0.9-0.4s0.7,0.1,0.9,0.4c0.2,0.2,0.4,0.6,0.4,0.9
			c0,0.4-0.1,0.7-0.4,0.9c-0.2,0.2-0.6,0.4-0.9,0.4s-0.7-0.1-0.9-0.4C361.7,246.7,361.6,246.4,361.6,246z M363.8,262.4
			c0,0.2,0,0.4,0,0.5c0,0.1-0.1,0.2-0.1,0.4c-0.1,0.1-0.2,0.2-0.3,0.3c-0.1,0.1-0.3,0.1-0.5,0.1c-0.2,0-0.3,0-0.5-0.1
			c-0.1-0.1-0.2-0.2-0.3-0.3c-0.1-0.1-0.1-0.2-0.1-0.4c0-0.1,0-0.3,0-0.5V252c0-0.2,0-0.4,0-0.5c0-0.1,0.1-0.2,0.1-0.4
			c0.1-0.1,0.2-0.2,0.3-0.3c0.1-0.1,0.3-0.1,0.5-0.1c0.2,0,0.3,0,0.5,0.1c0.1,0.1,0.2,0.2,0.3,0.3c0.1,0.1,0.1,0.2,0.1,0.4
			c0,0.1,0,0.3,0,0.5V262.4z"/>
		<path fill="#BCBEC0" d="M378.8,257.2c0,0.5,0,1-0.1,1.5c0,0.5-0.1,1-0.2,1.5s-0.3,0.9-0.5,1.3s-0.5,0.8-0.8,1.1
			c-0.3,0.3-0.8,0.6-1.3,0.8c-0.5,0.2-1.1,0.3-1.8,0.3c-0.4,0-0.7,0-1-0.1s-0.6-0.1-0.9-0.3c-0.3-0.1-0.6-0.3-0.9-0.5
			c-0.3-0.2-0.6-0.5-0.8-0.8v6c0,0.2,0,0.4,0,0.5c0,0.1-0.1,0.2-0.1,0.4c-0.1,0.1-0.2,0.2-0.3,0.3s-0.3,0.1-0.5,0.1
			c-0.2,0-0.3,0-0.5-0.1s-0.2-0.2-0.3-0.3c-0.1-0.1-0.1-0.2-0.1-0.4c0-0.1,0-0.3,0-0.5V252c0-0.2,0-0.4,0-0.5c0-0.1,0.1-0.2,0.1-0.4
			c0.1-0.1,0.2-0.2,0.3-0.3c0.1-0.1,0.3-0.1,0.5-0.1c0.2,0,0.3,0,0.5,0.1c0.1,0.1,0.2,0.2,0.3,0.3c0.1,0.1,0.1,0.2,0.1,0.4
			c0,0.1,0,0.3,0,0.5v0.4c0.3-0.3,0.5-0.6,0.8-0.8c0.3-0.2,0.6-0.4,0.9-0.5s0.6-0.2,0.9-0.3s0.7-0.1,1-0.1c0.7,0,1.3,0.1,1.8,0.3
			c0.5,0.2,1,0.5,1.3,0.8c0.3,0.3,0.6,0.7,0.8,1.1c0.2,0.4,0.4,0.9,0.5,1.3s0.2,1,0.2,1.5C378.8,256.2,378.8,256.7,378.8,257.2z
			 M370.5,257.2c0,0.6,0,1.2,0.1,1.8c0.1,0.6,0.2,1.1,0.4,1.6c0.2,0.5,0.5,0.8,1,1.1c0.4,0.3,1,0.4,1.7,0.4c0.7,0,1.3-0.1,1.7-0.4
			c0.4-0.3,0.7-0.6,1-1.1c0.2-0.5,0.4-1,0.4-1.6c0.1-0.6,0.1-1.2,0.1-1.8s0-1.2-0.1-1.8c-0.1-0.6-0.2-1.1-0.4-1.6
			c-0.2-0.5-0.5-0.8-1-1.1c-0.4-0.3-1-0.4-1.7-0.4c-0.7,0-1.3,0.1-1.7,0.4c-0.4,0.3-0.7,0.6-1,1.1c-0.2,0.5-0.4,1-0.4,1.6
			C370.5,256,370.5,256.6,370.5,257.2z"/>
		<path fill="#BCBEC0" d="M385.1,260.1c0,0.6,0.1,1,0.4,1.4c0.3,0.3,0.7,0.5,1.3,0.5c0.2,0,0.4,0,0.5,0c0.1,0,0.2,0.1,0.3,0.1
			c0.2,0.1,0.4,0.4,0.4,0.7s-0.1,0.5-0.4,0.7c-0.1,0.1-0.2,0.1-0.3,0.1c-0.1,0-0.3,0-0.5,0h-0.3c-0.5,0-1-0.1-1.4-0.3
			c-0.4-0.2-0.7-0.4-1-0.7s-0.5-0.7-0.6-1.1s-0.2-0.9-0.2-1.3v-7.9h-0.9c-0.2,0-0.3,0-0.4,0c-0.1,0-0.2-0.1-0.3-0.1
			c-0.2-0.1-0.3-0.3-0.3-0.6s0.1-0.5,0.3-0.6c0.1-0.1,0.2-0.1,0.3-0.1c0.1,0,0.2,0,0.4,0h0.9v-2.7c0-0.2,0-0.4,0-0.5
			s0.1-0.2,0.1-0.4c0.1-0.1,0.2-0.2,0.3-0.3c0.1-0.1,0.3-0.1,0.5-0.1c0.2,0,0.3,0,0.5,0.1c0.1,0.1,0.2,0.2,0.3,0.3
			c0.1,0.1,0.1,0.2,0.1,0.4s0,0.3,0,0.5v2.7h1.9c0.2,0,0.3,0,0.4,0c0.1,0,0.2,0.1,0.3,0.1c0.2,0.1,0.3,0.3,0.3,0.6s-0.1,0.5-0.3,0.6
			c-0.1,0.1-0.2,0.1-0.3,0.1c-0.1,0-0.2,0-0.4,0h-1.9V260.1z"/>
		<path fill="#F65A5B" d="M397.6,262.5c-0.2-0.1-0.3-0.3-0.4-0.4c-0.1-0.1-0.2-0.3-0.2-0.5c0-0.1,0-0.2,0.1-0.3
			c0.1-0.1,0.1-0.2,0.2-0.3c0.1-0.1,0.3-0.2,0.5-0.2c0.2,0,0.5,0.1,0.9,0.4c0.5,0.3,1,0.6,1.5,0.7c0.5,0.2,1.2,0.2,1.9,0.2
			c1.1,0,1.9-0.2,2.5-0.6c0.6-0.4,0.9-0.9,0.9-1.7c0-0.6-0.2-1-0.5-1.3c-0.3-0.3-0.9-0.5-1.6-0.6l-2.1-0.2c-1.2-0.1-2.2-0.4-2.8-1
			c-0.6-0.6-1-1.4-1-2.4c0-0.6,0.1-1.1,0.4-1.6s0.6-0.9,1-1.2s0.9-0.6,1.5-0.7c0.6-0.2,1.2-0.3,1.9-0.3c0.7,0,1.4,0.1,1.9,0.2
			c0.6,0.1,1.1,0.3,1.6,0.6c0.2,0.1,0.3,0.2,0.4,0.2c0.1,0.1,0.2,0.1,0.2,0.2c0.1,0.1,0.1,0.2,0.1,0.2s0,0.2,0,0.2
			c0,0.1,0,0.2-0.1,0.3c0,0.1-0.1,0.2-0.2,0.2c-0.2,0.2-0.4,0.3-0.6,0.3c-0.1,0-0.2,0-0.3-0.1c-0.1,0-0.2-0.1-0.4-0.2
			c-0.4-0.2-0.9-0.4-1.3-0.5c-0.5-0.1-1-0.2-1.5-0.2c-0.9,0-1.6,0.2-2.1,0.5c-0.5,0.4-0.7,0.9-0.7,1.6c0,0.6,0.2,1,0.5,1.3
			c0.4,0.3,0.9,0.5,1.7,0.5l2.1,0.2c0.6,0.1,1.1,0.1,1.5,0.3c0.5,0.1,0.9,0.3,1.2,0.6c0.3,0.3,0.6,0.6,0.8,1s0.3,0.9,0.3,1.5
			c0,0.6-0.1,1.2-0.4,1.7c-0.3,0.5-0.6,0.9-1.1,1.2c-0.5,0.3-1,0.6-1.7,0.8s-1.3,0.3-2.1,0.3c-1,0-1.8-0.1-2.5-0.3
			C398.8,263.3,398.1,263,397.6,262.5z"/>
		<path fill="#F65A5B" d="M412.8,252.4c0.2-0.3,0.4-0.5,0.6-0.7s0.5-0.4,0.8-0.5c0.3-0.1,0.6-0.3,1-0.3c0.3-0.1,0.7-0.1,1-0.1
			c0.5,0,0.9,0,1.2,0.1c0.4,0.1,0.7,0.3,1.1,0.5c0.2,0.1,0.4,0.3,0.5,0.4s0.2,0.3,0.2,0.5c0,0.1,0,0.2-0.1,0.4
			c-0.1,0.1-0.1,0.2-0.2,0.3c-0.2,0.2-0.4,0.3-0.7,0.3c-0.1,0-0.2,0-0.4-0.1c-0.1-0.1-0.3-0.1-0.5-0.3c-0.2-0.1-0.5-0.3-0.8-0.3
			c-0.3-0.1-0.5-0.1-0.8-0.1c-0.5,0-0.9,0.1-1.3,0.3s-0.7,0.4-1,0.7c-0.3,0.3-0.5,0.7-0.6,1.1c-0.1,0.4-0.2,0.9-0.2,1.4v6.6
			c0,0.2,0,0.4,0,0.5c0,0.1-0.1,0.2-0.1,0.4c-0.1,0.1-0.2,0.2-0.3,0.3c-0.1,0.1-0.3,0.1-0.5,0.1c-0.2,0-0.3,0-0.5-0.1
			c-0.1-0.1-0.2-0.2-0.3-0.3c-0.1-0.1-0.1-0.2-0.1-0.4c0-0.1,0-0.3,0-0.5V252c0-0.2,0-0.4,0-0.5c0-0.1,0.1-0.2,0.1-0.4
			c0.1-0.1,0.2-0.2,0.3-0.3c0.1-0.1,0.3-0.1,0.5-0.1c0.2,0,0.3,0,0.5,0.1c0.1,0.1,0.2,0.2,0.3,0.3c0.1,0.1,0.1,0.2,0.1,0.4
			s0,0.3,0,0.5V252.4z"/>
		<path fill="#F65A5B" d="M420.5,257.2c0-1.1,0.1-2,0.4-2.9c0.3-0.8,0.7-1.5,1.2-2s1.1-1,1.8-1.2c0.7-0.3,1.4-0.4,2.3-0.4
			c0.7,0,1.2,0.1,1.7,0.3c0.5,0.2,1,0.4,1.4,0.8c0.3,0.2,0.5,0.4,0.7,0.6c0.2,0.2,0.2,0.4,0.2,0.6c0,0.2-0.1,0.4-0.3,0.6
			c-0.2,0.2-0.4,0.2-0.6,0.2c-0.1,0-0.3,0-0.4-0.1c-0.1-0.1-0.3-0.2-0.5-0.4c-0.2-0.2-0.4-0.3-0.6-0.4s-0.4-0.2-0.5-0.3
			c-0.2-0.1-0.4-0.1-0.5-0.2c-0.2,0-0.4,0-0.6,0c-0.6,0-1.2,0.1-1.7,0.4c-0.5,0.2-0.9,0.6-1.2,1.1c-0.1,0.2-0.3,0.4-0.4,0.7
			c-0.1,0.2-0.2,0.5-0.3,0.8c-0.1,0.3-0.1,0.6-0.1,0.9s0,0.7,0,1.1s0,0.8,0,1.1s0.1,0.6,0.1,0.9c0.1,0.3,0.2,0.5,0.3,0.8
			c0.1,0.2,0.2,0.5,0.4,0.7c0.3,0.5,0.8,0.8,1.2,1.1c0.5,0.2,1.1,0.4,1.7,0.4c0.2,0,0.4,0,0.6,0c0.2,0,0.4-0.1,0.6-0.1
			s0.4-0.2,0.5-0.3c0.2-0.1,0.4-0.3,0.6-0.4c0.2-0.1,0.3-0.3,0.5-0.4c0.2-0.1,0.3-0.1,0.4-0.1c0.2,0,0.4,0.1,0.6,0.2
			c0.2,0.2,0.3,0.4,0.3,0.6c0,0.2-0.1,0.4-0.2,0.6c-0.2,0.2-0.4,0.4-0.7,0.6c-0.4,0.3-0.9,0.6-1.4,0.8s-1.1,0.3-1.7,0.3
			c-0.8,0-1.6-0.1-2.3-0.4c-0.7-0.3-1.3-0.7-1.8-1.2s-0.9-1.2-1.2-2C420.6,259.3,420.5,258.3,420.5,257.2z"/>
		<path fill="#BCBEC0" d="M443.8,254.4c0,0.3-0.1,0.5-0.4,0.7c-0.1,0.1-0.2,0.1-0.3,0.1c-0.1,0-0.3,0-0.5,0h-8.7c-0.2,0-0.4,0-0.5,0
			s-0.2-0.1-0.3-0.1c-0.2-0.2-0.4-0.4-0.4-0.7c0-0.3,0.1-0.5,0.4-0.7c0.1-0.1,0.2-0.1,0.3-0.1c0.1,0,0.3,0,0.5,0h8.7
			c0.2,0,0.4,0,0.5,0c0.1,0,0.2,0.1,0.3,0.1C443.7,253.9,443.8,254.1,443.8,254.4z M443.8,258.9c0,0.3-0.1,0.5-0.4,0.7
			c-0.1,0.1-0.2,0.1-0.3,0.1c-0.1,0-0.3,0-0.5,0h-8.7c-0.2,0-0.4,0-0.5,0s-0.2-0.1-0.3-0.1c-0.2-0.2-0.4-0.4-0.4-0.7
			c0-0.3,0.1-0.5,0.4-0.7c0.1-0.1,0.2-0.1,0.3-0.1c0.1,0,0.3,0,0.5,0h8.7c0.2,0,0.4,0,0.5,0c0.1,0,0.2,0.1,0.3,0.1
			C443.7,258.3,443.8,258.5,443.8,258.9z"/>
		<path fill="#BCBEC0" d="M449,249c0,0.2,0,0.4,0,0.5s-0.1,0.2-0.1,0.4c-0.1,0.1-0.2,0.2-0.3,0.3s-0.3,0.1-0.5,0.1s-0.3,0-0.5-0.1
			s-0.2-0.2-0.3-0.3c-0.1-0.1-0.1-0.2-0.1-0.4s0-0.3,0-0.5v-2.8c0-0.2,0-0.4,0-0.5c0-0.1,0.1-0.2,0.1-0.4c0.1-0.1,0.2-0.2,0.3-0.3
			s0.3-0.1,0.5-0.1s0.3,0,0.5,0.1s0.2,0.2,0.3,0.3c0.1,0.1,0.1,0.2,0.1,0.4c0,0.1,0,0.3,0,0.5V249z M453.4,249c0,0.2,0,0.4,0,0.5
			c0,0.1-0.1,0.2-0.1,0.4c-0.1,0.1-0.2,0.2-0.3,0.3s-0.3,0.1-0.5,0.1s-0.3,0-0.5-0.1s-0.2-0.2-0.3-0.3c-0.1-0.1-0.1-0.2-0.1-0.4
			s0-0.3,0-0.5v-2.8c0-0.2,0-0.4,0-0.5c0-0.1,0.1-0.2,0.1-0.4c0.1-0.1,0.2-0.2,0.3-0.3s0.3-0.1,0.5-0.1s0.3,0,0.5,0.1
			s0.2,0.2,0.3,0.3c0.1,0.1,0.1,0.2,0.1,0.4c0,0.1,0,0.3,0,0.5V249z"/>
		<path fill="#39D1B4" d="M456.7,260c0-0.6,0.1-1.1,0.3-1.5s0.5-0.8,0.9-1.2c0.4-0.3,0.8-0.6,1.4-0.7c0.6-0.2,1.2-0.3,1.9-0.3h3.9
			v-1c0-1-0.2-1.7-0.7-2.2c-0.5-0.5-1.3-0.7-2.4-0.7c-0.3,0-0.6,0-0.9,0.1c-0.3,0-0.5,0.1-0.7,0.2c-0.2,0.1-0.4,0.2-0.6,0.4
			c-0.2,0.1-0.4,0.3-0.6,0.5c-0.1,0.1-0.3,0.2-0.4,0.3s-0.3,0.1-0.4,0.1s-0.2,0-0.3-0.1c-0.1,0-0.2-0.1-0.3-0.2
			c-0.1-0.1-0.1-0.2-0.2-0.3c0-0.1-0.1-0.2-0.1-0.3c0-0.2,0.1-0.5,0.3-0.7c0.2-0.2,0.5-0.5,0.9-0.7c0.5-0.3,1-0.5,1.5-0.6
			c0.5-0.1,1.1-0.2,1.8-0.2c1.7,0,2.9,0.4,3.8,1.1c0.8,0.7,1.3,1.8,1.3,3.2v7.5c0,0.2,0,0.4,0,0.5c0,0.1-0.1,0.2-0.1,0.4
			c-0.1,0.1-0.2,0.2-0.3,0.3c-0.1,0.1-0.3,0.1-0.5,0.1c-0.2,0-0.3,0-0.5-0.1c-0.1-0.1-0.2-0.2-0.3-0.3c-0.1-0.1-0.1-0.2-0.1-0.4
			c0-0.1,0-0.3,0-0.5v0c-0.3,0.3-0.5,0.5-0.8,0.6c-0.3,0.2-0.5,0.3-0.8,0.4c-0.3,0.1-0.6,0.2-0.9,0.2s-0.7,0.1-1.1,0.1
			c-0.9,0-1.6-0.1-2.2-0.3s-1.1-0.5-1.5-0.9c-0.3-0.3-0.5-0.7-0.7-1.2S456.7,260.5,456.7,260z M458.5,260c0,1.5,1,2.2,3,2.2
			c0.3,0,0.5,0,0.8,0c0.3,0,0.5-0.1,0.7-0.1c0.2-0.1,0.5-0.1,0.7-0.3s0.4-0.3,0.6-0.5c0.2-0.2,0.4-0.5,0.5-0.9
			c0.1-0.4,0.2-0.8,0.2-1.4v-1.4h-3.7c-0.9,0-1.6,0.2-2.1,0.6C458.8,258.7,458.5,259.2,458.5,260z"/>
		<path fill="#39D1B4" d="M481.6,257.2c0,0.5,0,1-0.1,1.5c0,0.5-0.1,1-0.2,1.5s-0.3,0.9-0.5,1.3s-0.5,0.8-0.8,1.1
			c-0.3,0.3-0.8,0.6-1.3,0.8c-0.5,0.2-1.1,0.3-1.8,0.3c-0.4,0-0.7,0-1-0.1s-0.6-0.1-0.9-0.3c-0.3-0.1-0.6-0.3-0.9-0.5
			c-0.3-0.2-0.6-0.5-0.8-0.8v6c0,0.2,0,0.4,0,0.5c0,0.1-0.1,0.2-0.1,0.4c-0.1,0.1-0.2,0.2-0.3,0.3s-0.3,0.1-0.5,0.1
			c-0.2,0-0.3,0-0.5-0.1s-0.2-0.2-0.3-0.3c-0.1-0.1-0.1-0.2-0.1-0.4c0-0.1,0-0.3,0-0.5V252c0-0.2,0-0.4,0-0.5c0-0.1,0.1-0.2,0.1-0.4
			c0.1-0.1,0.2-0.2,0.3-0.3c0.1-0.1,0.3-0.1,0.5-0.1c0.2,0,0.3,0,0.5,0.1c0.1,0.1,0.2,0.2,0.3,0.3c0.1,0.1,0.1,0.2,0.1,0.4
			c0,0.1,0,0.3,0,0.5v0.4c0.3-0.3,0.5-0.6,0.8-0.8c0.3-0.2,0.6-0.4,0.9-0.5s0.6-0.2,0.9-0.3s0.7-0.1,1-0.1c0.7,0,1.3,0.1,1.8,0.3
			c0.5,0.2,1,0.5,1.3,0.8c0.3,0.3,0.6,0.7,0.8,1.1c0.2,0.4,0.4,0.9,0.5,1.3s0.2,1,0.2,1.5C481.6,256.2,481.6,256.7,481.6,257.2z
			 M473.3,257.2c0,0.6,0,1.2,0.1,1.8c0.1,0.6,0.2,1.1,0.4,1.6c0.2,0.5,0.5,0.8,1,1.1c0.4,0.3,1,0.4,1.7,0.4c0.7,0,1.3-0.1,1.7-0.4
			c0.4-0.3,0.7-0.6,1-1.1c0.2-0.5,0.4-1,0.4-1.6c0.1-0.6,0.1-1.2,0.1-1.8s0-1.2-0.1-1.8c-0.1-0.6-0.2-1.1-0.4-1.6
			c-0.2-0.5-0.5-0.8-1-1.1c-0.4-0.3-1-0.4-1.7-0.4c-0.7,0-1.3,0.1-1.7,0.4c-0.4,0.3-0.7,0.6-1,1.1c-0.2,0.5-0.4,1-0.4,1.6
			C473.3,256,473.3,256.6,473.3,257.2z"/>
		<path fill="#39D1B4" d="M495.9,257.2c0,0.5,0,1-0.1,1.5c0,0.5-0.1,1-0.2,1.5s-0.3,0.9-0.5,1.3s-0.5,0.8-0.8,1.1
			c-0.3,0.3-0.8,0.6-1.3,0.8c-0.5,0.2-1.1,0.3-1.8,0.3c-0.4,0-0.7,0-1-0.1s-0.6-0.1-0.9-0.3c-0.3-0.1-0.6-0.3-0.9-0.5
			c-0.3-0.2-0.6-0.5-0.8-0.8v6c0,0.2,0,0.4,0,0.5c0,0.1-0.1,0.2-0.1,0.4c-0.1,0.1-0.2,0.2-0.3,0.3s-0.3,0.1-0.5,0.1
			c-0.2,0-0.3,0-0.5-0.1s-0.2-0.2-0.3-0.3c-0.1-0.1-0.1-0.2-0.1-0.4c0-0.1,0-0.3,0-0.5V252c0-0.2,0-0.4,0-0.5c0-0.1,0.1-0.2,0.1-0.4
			c0.1-0.1,0.2-0.2,0.3-0.3c0.1-0.1,0.3-0.1,0.5-0.1c0.2,0,0.3,0,0.5,0.1c0.1,0.1,0.2,0.2,0.3,0.3c0.1,0.1,0.1,0.2,0.1,0.4
			c0,0.1,0,0.3,0,0.5v0.4c0.3-0.3,0.5-0.6,0.8-0.8c0.3-0.2,0.6-0.4,0.9-0.5s0.6-0.2,0.9-0.3s0.7-0.1,1-0.1c0.7,0,1.3,0.1,1.8,0.3
			c0.5,0.2,1,0.5,1.3,0.8c0.3,0.3,0.6,0.7,0.8,1.1c0.2,0.4,0.4,0.9,0.5,1.3s0.2,1,0.2,1.5C495.8,256.2,495.9,256.7,495.9,257.2z
			 M487.5,257.2c0,0.6,0,1.2,0.1,1.8c0.1,0.6,0.2,1.1,0.4,1.6c0.2,0.5,0.5,0.8,1,1.1c0.4,0.3,1,0.4,1.7,0.4c0.7,0,1.3-0.1,1.7-0.4
			c0.4-0.3,0.7-0.6,1-1.1c0.2-0.5,0.4-1,0.4-1.6c0.1-0.6,0.1-1.2,0.1-1.8s0-1.2-0.1-1.8c-0.1-0.6-0.2-1.1-0.4-1.6
			c-0.2-0.5-0.5-0.8-1-1.1c-0.4-0.3-1-0.4-1.7-0.4c-0.7,0-1.3,0.1-1.7,0.4c-0.4,0.3-0.7,0.6-1,1.1c-0.2,0.5-0.4,1-0.4,1.6
			C487.6,256,487.5,256.6,487.5,257.2z"/>
		<path fill="#39D1B4" d="M499.6,262.2c0-0.2,0-0.4,0.1-0.6c0.1-0.2,0.2-0.3,0.3-0.5c0.1-0.1,0.3-0.2,0.5-0.3s0.4-0.1,0.6-0.1
			c0.2,0,0.4,0,0.6,0.1s0.3,0.2,0.5,0.3c0.1,0.1,0.2,0.3,0.3,0.5c0.1,0.2,0.1,0.4,0.1,0.6s0,0.4-0.1,0.6c-0.1,0.2-0.2,0.3-0.3,0.5
			c-0.1,0.1-0.3,0.2-0.5,0.3c-0.2,0.1-0.4,0.1-0.6,0.1c-0.2,0-0.4,0-0.6-0.1c-0.2-0.1-0.3-0.2-0.5-0.3c-0.1-0.1-0.2-0.3-0.3-0.5
			C499.6,262.6,499.6,262.4,499.6,262.2z"/>
		<path fill="#39D1B4" d="M507,252c0-0.2,0-0.4,0-0.5c0-0.1,0.1-0.2,0.1-0.4c0.1-0.1,0.2-0.2,0.3-0.3c0.1-0.1,0.3-0.1,0.5-0.1
			s0.3,0,0.5,0.1c0.1,0.1,0.2,0.2,0.3,0.3c0.1,0.1,0.1,0.2,0.1,0.4c0,0.1,0,0.3,0,0.5v13.9c0,0.5-0.1,0.9-0.2,1.3
			c-0.1,0.4-0.3,0.8-0.6,1.1s-0.6,0.6-1,0.7c-0.4,0.2-0.9,0.3-1.4,0.3h-0.3c-0.2,0-0.4,0-0.5,0c-0.1,0-0.2-0.1-0.3-0.1
			c-0.2-0.1-0.3-0.4-0.3-0.7c0-0.3,0.1-0.5,0.3-0.7c0.1-0.1,0.2-0.1,0.3-0.1c0.1,0,0.3,0,0.5,0c0.6,0,1-0.2,1.3-0.5
			c0.3-0.3,0.4-0.8,0.4-1.4V252z M506.6,246c0-0.4,0.1-0.7,0.4-0.9c0.2-0.2,0.6-0.4,0.9-0.4c0.4,0,0.7,0.1,0.9,0.4s0.4,0.6,0.4,0.9
			c0,0.4-0.1,0.7-0.4,0.9s-0.6,0.4-0.9,0.4c-0.4,0-0.7-0.1-0.9-0.4C506.8,246.7,506.6,246.4,506.6,246z"/>
		<path fill="#39D1B4" d="M513.2,262.5c-0.2-0.1-0.3-0.3-0.4-0.4c-0.1-0.1-0.2-0.3-0.2-0.5c0-0.1,0-0.2,0.1-0.3s0.1-0.2,0.2-0.3
			c0.1-0.1,0.3-0.2,0.5-0.2c0.2,0,0.5,0.1,0.9,0.4c0.5,0.3,1,0.6,1.5,0.7c0.5,0.2,1.2,0.2,1.9,0.2c1.1,0,1.9-0.2,2.5-0.6
			c0.6-0.4,0.9-0.9,0.9-1.7c0-0.6-0.2-1-0.5-1.3c-0.3-0.3-0.9-0.5-1.6-0.6l-2.1-0.2c-1.2-0.1-2.2-0.4-2.8-1c-0.7-0.6-1-1.4-1-2.4
			c0-0.6,0.1-1.1,0.4-1.6c0.2-0.5,0.6-0.9,1-1.2s0.9-0.6,1.5-0.7c0.6-0.2,1.2-0.3,1.9-0.3c0.7,0,1.4,0.1,2,0.2
			c0.6,0.1,1.1,0.3,1.6,0.6c0.2,0.1,0.3,0.2,0.4,0.2c0.1,0.1,0.2,0.1,0.2,0.2c0.1,0.1,0.1,0.2,0.1,0.2s0,0.2,0,0.2
			c0,0.1,0,0.2-0.1,0.3c0,0.1-0.1,0.2-0.2,0.2c-0.2,0.2-0.4,0.3-0.6,0.3c-0.1,0-0.2,0-0.3-0.1c-0.1,0-0.2-0.1-0.4-0.2
			c-0.4-0.2-0.9-0.4-1.3-0.5s-1-0.2-1.5-0.2c-0.9,0-1.6,0.2-2.1,0.5s-0.7,0.9-0.7,1.6c0,0.6,0.2,1,0.5,1.3c0.4,0.3,0.9,0.5,1.7,0.5
			l2.1,0.2c0.6,0.1,1.1,0.1,1.5,0.3c0.5,0.1,0.9,0.3,1.2,0.6c0.3,0.3,0.6,0.6,0.8,1s0.3,0.9,0.3,1.5c0,0.6-0.1,1.2-0.4,1.7
			c-0.3,0.5-0.6,0.9-1.1,1.2c-0.5,0.3-1,0.6-1.7,0.8c-0.6,0.2-1.3,0.3-2.1,0.3c-1,0-1.8-0.1-2.5-0.3
			C514.4,263.3,513.7,263,513.2,262.5z"/>
		<path fill="#BCBEC0" d="M528.1,249c0,0.2,0,0.4,0,0.5s-0.1,0.2-0.1,0.4c-0.1,0.1-0.2,0.2-0.3,0.3s-0.3,0.1-0.5,0.1s-0.3,0-0.5-0.1
			s-0.2-0.2-0.3-0.3c-0.1-0.1-0.1-0.2-0.1-0.4s0-0.3,0-0.5v-2.8c0-0.2,0-0.4,0-0.5c0-0.1,0.1-0.2,0.1-0.4c0.1-0.1,0.2-0.2,0.3-0.3
			s0.3-0.1,0.5-0.1s0.3,0,0.5,0.1s0.2,0.2,0.3,0.3c0.1,0.1,0.1,0.2,0.1,0.4c0,0.1,0,0.3,0,0.5V249z M532.5,249c0,0.2,0,0.4,0,0.5
			c0,0.1-0.1,0.2-0.1,0.4c-0.1,0.1-0.2,0.2-0.3,0.3s-0.3,0.1-0.5,0.1s-0.3,0-0.5-0.1s-0.2-0.2-0.3-0.3c-0.1-0.1-0.1-0.2-0.1-0.4
			s0-0.3,0-0.5v-2.8c0-0.2,0-0.4,0-0.5c0-0.1,0.1-0.2,0.1-0.4c0.1-0.1,0.2-0.2,0.3-0.3s0.3-0.1,0.5-0.1s0.3,0,0.5,0.1
			s0.2,0.2,0.3,0.3c0.1,0.1,0.1,0.2,0.1,0.4c0,0.1,0,0.3,0,0.5V249z"/>
		<path fill="#BCBEC0" d="M544.5,255.3c0.2,0.1,0.3,0.2,0.5,0.3c0.2,0.1,0.3,0.2,0.4,0.3c0.1,0.1,0.2,0.2,0.3,0.4
			c0.1,0.1,0.1,0.3,0.1,0.5c0,0.2,0,0.3-0.1,0.5s-0.2,0.3-0.3,0.4c-0.1,0.1-0.2,0.2-0.4,0.3c-0.2,0.1-0.3,0.2-0.5,0.3l-6,3
			c-0.2,0.1-0.3,0.2-0.4,0.2s-0.2,0-0.3,0c-0.2,0-0.4-0.1-0.6-0.3c-0.2-0.2-0.2-0.4-0.2-0.6c0-0.2,0.1-0.4,0.2-0.6
			c0.2-0.1,0.3-0.3,0.6-0.4l5.6-2.8l-5.6-2.8c-0.2-0.1-0.4-0.2-0.6-0.4c-0.2-0.1-0.2-0.3-0.2-0.6c0-0.2,0.1-0.4,0.2-0.6
			s0.4-0.3,0.6-0.3c0.1,0,0.2,0,0.3,0c0.1,0,0.3,0.1,0.4,0.2L544.5,255.3z"/>
		<path fill="#BCBEC0" d="M557.6,252.2c0.2-0.1,0.3-0.2,0.4-0.2s0.2,0,0.3,0c0.2,0,0.4,0.1,0.6,0.3c0.2,0.2,0.2,0.4,0.2,0.6
			c0,0.2-0.1,0.4-0.2,0.6c-0.2,0.1-0.3,0.3-0.6,0.4l-5.6,2.8l5.6,2.8c0.2,0.1,0.4,0.2,0.6,0.4c0.2,0.1,0.2,0.3,0.2,0.6
			c0,0.2-0.1,0.4-0.2,0.6c-0.2,0.2-0.4,0.3-0.6,0.3c-0.1,0-0.2,0-0.3,0c-0.1,0-0.3-0.1-0.4-0.2l-6-3c-0.2-0.1-0.3-0.2-0.5-0.3
			s-0.3-0.2-0.4-0.3c-0.1-0.1-0.2-0.2-0.3-0.4c-0.1-0.1-0.1-0.3-0.1-0.5c0-0.2,0-0.3,0.1-0.5c0.1-0.1,0.2-0.3,0.3-0.4
			c0.1-0.1,0.2-0.2,0.4-0.3c0.1-0.1,0.3-0.2,0.5-0.3L557.6,252.2z"/>
		<path fill="#BCBEC0" d="M563.7,264.7c-0.1,0.3-0.2,0.5-0.3,0.6c-0.1,0.2-0.3,0.3-0.6,0.3c-0.2,0-0.4-0.1-0.5-0.2
			c-0.2-0.1-0.3-0.2-0.3-0.4c0-0.1-0.1-0.3,0-0.4c0-0.1,0.1-0.3,0.1-0.5l6.7-20.2c0.1-0.3,0.2-0.5,0.3-0.6c0.1-0.2,0.3-0.3,0.6-0.3
			c0.2,0,0.4,0.1,0.5,0.2c0.2,0.1,0.3,0.2,0.3,0.4c0,0.1,0.1,0.3,0,0.4c0,0.1-0.1,0.3-0.1,0.5L563.7,264.7z"/>
		<path fill="#BCBEC0" d="M572.7,262.5c-0.2-0.1-0.3-0.3-0.4-0.4c-0.1-0.1-0.2-0.3-0.2-0.5c0-0.1,0-0.2,0.1-0.3
			c0.1-0.1,0.1-0.2,0.2-0.3c0.1-0.1,0.3-0.2,0.5-0.2c0.2,0,0.5,0.1,0.9,0.4c0.5,0.3,1,0.6,1.5,0.7c0.5,0.2,1.2,0.2,1.9,0.2
			c1.1,0,1.9-0.2,2.5-0.6c0.6-0.4,0.9-0.9,0.9-1.7c0-0.6-0.2-1-0.5-1.3c-0.3-0.3-0.9-0.5-1.6-0.6l-2.1-0.2c-1.2-0.1-2.2-0.4-2.8-1
			c-0.7-0.6-1-1.4-1-2.4c0-0.6,0.1-1.1,0.4-1.6c0.2-0.5,0.6-0.9,1-1.2s0.9-0.6,1.5-0.7c0.6-0.2,1.2-0.3,1.9-0.3c0.7,0,1.4,0.1,2,0.2
			c0.6,0.1,1.1,0.3,1.6,0.6c0.2,0.1,0.3,0.2,0.4,0.2c0.1,0.1,0.2,0.1,0.2,0.2c0.1,0.1,0.1,0.2,0.1,0.2s0,0.2,0,0.2
			c0,0.1,0,0.2-0.1,0.3c0,0.1-0.1,0.2-0.1,0.2c-0.2,0.2-0.4,0.3-0.6,0.3c-0.1,0-0.2,0-0.3-0.1c-0.1,0-0.2-0.1-0.4-0.2
			c-0.4-0.2-0.9-0.4-1.3-0.5c-0.5-0.1-1-0.2-1.5-0.2c-0.9,0-1.6,0.2-2.1,0.5s-0.7,0.9-0.7,1.6c0,0.6,0.2,1,0.5,1.3
			c0.4,0.3,0.9,0.5,1.7,0.5l2.1,0.2c0.6,0.1,1.1,0.1,1.5,0.3c0.5,0.1,0.9,0.3,1.2,0.6s0.6,0.6,0.8,1c0.2,0.4,0.3,0.9,0.3,1.5
			c0,0.6-0.1,1.2-0.4,1.7c-0.3,0.5-0.6,0.9-1.1,1.2c-0.5,0.3-1,0.6-1.7,0.8c-0.6,0.2-1.3,0.3-2.1,0.3c-1,0-1.8-0.1-2.5-0.3
			C573.9,263.3,573.3,263,572.7,262.5z"/>
		<path fill="#BCBEC0" d="M585.3,257.2c0-1.1,0.1-2,0.4-2.9c0.3-0.8,0.7-1.5,1.2-2c0.5-0.5,1.1-1,1.8-1.2c0.7-0.3,1.4-0.4,2.3-0.4
			c0.6,0,1.2,0.1,1.7,0.3c0.5,0.2,1,0.4,1.4,0.8c0.3,0.2,0.5,0.4,0.7,0.6c0.2,0.2,0.2,0.4,0.2,0.6c0,0.2-0.1,0.4-0.3,0.6
			c-0.2,0.2-0.4,0.2-0.6,0.2c-0.1,0-0.3,0-0.4-0.1c-0.1-0.1-0.3-0.2-0.5-0.4c-0.2-0.2-0.4-0.3-0.6-0.4s-0.4-0.2-0.5-0.3
			c-0.2-0.1-0.4-0.1-0.5-0.2s-0.4,0-0.6,0c-0.6,0-1.2,0.1-1.7,0.4c-0.5,0.2-0.9,0.6-1.2,1.1c-0.1,0.2-0.3,0.4-0.4,0.7
			c-0.1,0.2-0.2,0.5-0.3,0.8c-0.1,0.3-0.1,0.6-0.1,0.9s0,0.7,0,1.1s0,0.8,0,1.1s0.1,0.6,0.1,0.9c0.1,0.3,0.2,0.5,0.3,0.8
			c0.1,0.2,0.2,0.5,0.4,0.7c0.3,0.5,0.8,0.8,1.2,1.1c0.5,0.2,1.1,0.4,1.7,0.4c0.2,0,0.4,0,0.6,0s0.4-0.1,0.6-0.1s0.4-0.2,0.5-0.3
			c0.2-0.1,0.4-0.3,0.6-0.4c0.2-0.1,0.3-0.3,0.5-0.4c0.2-0.1,0.3-0.1,0.4-0.1c0.2,0,0.4,0.1,0.6,0.2c0.2,0.2,0.3,0.4,0.3,0.6
			c0,0.2-0.1,0.4-0.2,0.6c-0.2,0.2-0.4,0.4-0.7,0.6c-0.4,0.3-0.9,0.6-1.4,0.8c-0.5,0.2-1.1,0.3-1.7,0.3c-0.8,0-1.6-0.1-2.3-0.4
			c-0.7-0.3-1.3-0.7-1.8-1.2c-0.5-0.5-0.9-1.2-1.2-2C585.5,259.3,585.3,258.3,585.3,257.2z"/>
		<path fill="#BCBEC0" d="M600.7,252.4c0.2-0.3,0.4-0.5,0.6-0.7s0.5-0.4,0.8-0.5c0.3-0.1,0.6-0.3,1-0.3c0.3-0.1,0.7-0.1,1-0.1
			c0.5,0,0.9,0,1.2,0.1c0.4,0.1,0.7,0.3,1.1,0.5c0.2,0.1,0.4,0.3,0.5,0.4s0.2,0.3,0.2,0.5c0,0.1,0,0.2-0.1,0.4
			c-0.1,0.1-0.1,0.2-0.2,0.3c-0.2,0.2-0.4,0.3-0.7,0.3c-0.1,0-0.2,0-0.4-0.1c-0.1-0.1-0.3-0.1-0.5-0.3c-0.2-0.1-0.5-0.3-0.8-0.3
			c-0.3-0.1-0.5-0.1-0.8-0.1c-0.5,0-0.9,0.1-1.3,0.3s-0.7,0.4-1,0.7c-0.3,0.3-0.5,0.7-0.6,1.1c-0.1,0.4-0.2,0.9-0.2,1.4v6.6
			c0,0.2,0,0.4,0,0.5c0,0.1-0.1,0.2-0.1,0.4c-0.1,0.1-0.2,0.2-0.3,0.3c-0.1,0.1-0.3,0.1-0.5,0.1c-0.2,0-0.3,0-0.5-0.1
			c-0.1-0.1-0.2-0.2-0.3-0.3c-0.1-0.1-0.1-0.2-0.1-0.4c0-0.1,0-0.3,0-0.5V252c0-0.2,0-0.4,0-0.5c0-0.1,0.1-0.2,0.1-0.4
			c0.1-0.1,0.2-0.2,0.3-0.3c0.1-0.1,0.3-0.1,0.5-0.1c0.2,0,0.3,0,0.5,0.1c0.1,0.1,0.2,0.2,0.3,0.3c0.1,0.1,0.1,0.2,0.1,0.4
			s0,0.3,0,0.5V252.4z"/>
		<path fill="#BCBEC0" d="M609.5,246c0-0.4,0.1-0.7,0.4-0.9s0.6-0.4,0.9-0.4c0.4,0,0.7,0.1,0.9,0.4c0.2,0.2,0.4,0.6,0.4,0.9
			c0,0.4-0.1,0.7-0.4,0.9c-0.2,0.2-0.6,0.4-0.9,0.4c-0.4,0-0.7-0.1-0.9-0.4S609.5,246.4,609.5,246z M611.7,262.4c0,0.2,0,0.4,0,0.5
			c0,0.1-0.1,0.2-0.1,0.4c-0.1,0.1-0.2,0.2-0.3,0.3c-0.1,0.1-0.3,0.1-0.5,0.1c-0.2,0-0.3,0-0.5-0.1c-0.1-0.1-0.2-0.2-0.3-0.3
			c-0.1-0.1-0.1-0.2-0.1-0.4c0-0.1,0-0.3,0-0.5V252c0-0.2,0-0.4,0-0.5c0-0.1,0.1-0.2,0.1-0.4c0.1-0.1,0.2-0.2,0.3-0.3
			c0.1-0.1,0.3-0.1,0.5-0.1c0.2,0,0.3,0,0.5,0.1c0.1,0.1,0.2,0.2,0.3,0.3c0.1,0.1,0.1,0.2,0.1,0.4c0,0.1,0,0.3,0,0.5V262.4z"/>
		<path fill="#BCBEC0" d="M626.7,257.2c0,0.5,0,1-0.1,1.5c0,0.5-0.1,1-0.2,1.5c-0.1,0.5-0.3,0.9-0.5,1.3c-0.2,0.4-0.5,0.8-0.8,1.1
			c-0.3,0.3-0.8,0.6-1.3,0.8c-0.5,0.2-1.1,0.3-1.8,0.3c-0.4,0-0.7,0-1-0.1s-0.6-0.1-0.9-0.3c-0.3-0.1-0.6-0.3-0.9-0.5
			c-0.3-0.2-0.5-0.5-0.8-0.8v6c0,0.2,0,0.4,0,0.5c0,0.1-0.1,0.2-0.1,0.4c-0.1,0.1-0.2,0.2-0.3,0.3s-0.3,0.1-0.5,0.1s-0.3,0-0.5-0.1
			s-0.2-0.2-0.3-0.3c-0.1-0.1-0.1-0.2-0.1-0.4c0-0.1,0-0.3,0-0.5V252c0-0.2,0-0.4,0-0.5c0-0.1,0.1-0.2,0.1-0.4
			c0.1-0.1,0.2-0.2,0.3-0.3c0.1-0.1,0.3-0.1,0.5-0.1s0.3,0,0.5,0.1c0.1,0.1,0.2,0.2,0.3,0.3c0.1,0.1,0.1,0.2,0.1,0.4
			c0,0.1,0,0.3,0,0.5v0.4c0.3-0.3,0.5-0.6,0.8-0.8c0.3-0.2,0.6-0.4,0.9-0.5c0.3-0.1,0.6-0.2,0.9-0.3s0.7-0.1,1-0.1
			c0.7,0,1.3,0.1,1.8,0.3c0.5,0.2,1,0.5,1.3,0.8c0.3,0.3,0.6,0.7,0.8,1.1c0.2,0.4,0.4,0.9,0.5,1.3c0.1,0.5,0.2,1,0.2,1.5
			C626.7,256.2,626.7,256.7,626.7,257.2z M618.4,257.2c0,0.6,0,1.2,0.1,1.8s0.2,1.1,0.4,1.6c0.2,0.5,0.5,0.8,1,1.1
			c0.4,0.3,1,0.4,1.7,0.4s1.3-0.1,1.7-0.4c0.4-0.3,0.7-0.6,1-1.1c0.2-0.5,0.4-1,0.4-1.6s0.1-1.2,0.1-1.8s0-1.2-0.1-1.8
			s-0.2-1.1-0.4-1.6c-0.2-0.5-0.5-0.8-1-1.1c-0.4-0.3-1-0.4-1.7-0.4s-1.3,0.1-1.7,0.4c-0.4,0.3-0.7,0.6-1,1.1
			c-0.2,0.5-0.4,1-0.4,1.6S618.4,256.6,618.4,257.2z"/>
		<path fill="#BCBEC0" d="M633,260.1c0,0.6,0.1,1,0.4,1.4c0.3,0.3,0.7,0.5,1.3,0.5c0.2,0,0.4,0,0.5,0c0.1,0,0.2,0.1,0.3,0.1
			c0.2,0.1,0.4,0.4,0.4,0.7s-0.1,0.5-0.4,0.7c-0.1,0.1-0.2,0.1-0.3,0.1c-0.1,0-0.3,0-0.5,0h-0.3c-0.5,0-1-0.1-1.4-0.3
			c-0.4-0.2-0.7-0.4-1-0.7c-0.3-0.3-0.5-0.7-0.6-1.1c-0.1-0.4-0.2-0.9-0.2-1.3v-7.9h-0.9c-0.2,0-0.3,0-0.4,0s-0.2-0.1-0.3-0.1
			c-0.2-0.1-0.3-0.3-0.3-0.6s0.1-0.5,0.3-0.6c0.1-0.1,0.2-0.1,0.3-0.1c0.1,0,0.2,0,0.4,0h0.9v-2.7c0-0.2,0-0.4,0-0.5
			s0.1-0.2,0.1-0.4c0.1-0.1,0.2-0.2,0.3-0.3c0.1-0.1,0.3-0.1,0.5-0.1s0.3,0,0.5,0.1c0.1,0.1,0.2,0.2,0.3,0.3
			c0.1,0.1,0.1,0.2,0.1,0.4s0,0.3,0,0.5v2.7h1.9c0.2,0,0.3,0,0.4,0c0.1,0,0.2,0.1,0.3,0.1c0.2,0.1,0.3,0.3,0.3,0.6s-0.1,0.5-0.3,0.6
			c-0.1,0.1-0.2,0.1-0.3,0.1s-0.2,0-0.4,0H633V260.1z"/>
		<path fill="#BCBEC0" d="M647.1,255.3c0.2,0.1,0.3,0.2,0.5,0.3c0.2,0.1,0.3,0.2,0.4,0.3c0.1,0.1,0.2,0.2,0.3,0.4
			c0.1,0.1,0.1,0.3,0.1,0.5c0,0.2,0,0.3-0.1,0.5s-0.2,0.3-0.3,0.4c-0.1,0.1-0.2,0.2-0.4,0.3c-0.2,0.1-0.3,0.2-0.5,0.3l-6,3
			c-0.2,0.1-0.3,0.2-0.4,0.2s-0.2,0-0.3,0c-0.2,0-0.4-0.1-0.6-0.3c-0.2-0.2-0.2-0.4-0.2-0.6c0-0.2,0.1-0.4,0.2-0.6
			c0.2-0.1,0.3-0.3,0.6-0.4l5.6-2.8l-5.6-2.8c-0.2-0.1-0.4-0.2-0.6-0.4c-0.2-0.1-0.2-0.3-0.2-0.6c0-0.2,0.1-0.4,0.2-0.6
			s0.4-0.3,0.6-0.3c0.1,0,0.2,0,0.3,0c0.1,0,0.3,0.1,0.4,0.2L647.1,255.3z"/>
	</g>
	<g>
		<g>
			<path fill="#39D1B4" d="M474.9,312h4.8c0.2,0,0.3,0,0.4,0c0.1,0,0.1,0,0.2,0.1c0.2,0.1,0.3,0.3,0.3,0.5s-0.1,0.4-0.3,0.5
				c-0.1,0-0.1,0.1-0.2,0.1c-0.1,0-0.2,0-0.4,0h-4.8v4.8c0,0.2,0,0.3,0,0.4c0,0.1,0,0.2-0.1,0.3c-0.1,0.1-0.1,0.2-0.2,0.2
				c-0.1,0.1-0.2,0.1-0.3,0.1s-0.2,0-0.3-0.1c-0.1-0.1-0.2-0.1-0.2-0.2c-0.1-0.1-0.1-0.2-0.1-0.3c0-0.1,0-0.2,0-0.4v-11.1
				c0-0.1,0-0.2,0-0.3c0-0.1,0.1-0.2,0.2-0.3s0.2-0.2,0.3-0.2c0.1,0,0.2,0,0.3,0h6.3c0.2,0,0.3,0,0.4,0c0.1,0,0.2,0,0.2,0.1
				c0.2,0.1,0.3,0.3,0.3,0.5c0,0.2-0.1,0.4-0.3,0.5c-0.1,0-0.1,0.1-0.2,0.1c-0.1,0-0.2,0-0.4,0h-5.8V312z"/>
			<path fill="#39D1B4" d="M485.4,318c0,0.2,0,0.3,0,0.4s0,0.2-0.1,0.3s-0.1,0.2-0.2,0.2c-0.1,0.1-0.2,0.1-0.3,0.1
				c-0.1,0-0.2,0-0.3-0.1s-0.2-0.1-0.2-0.2s-0.1-0.2-0.1-0.3s0-0.2,0-0.4v-11.1c0-0.2,0-0.3,0-0.4s0-0.2,0.1-0.3s0.1-0.2,0.2-0.2
				s0.2-0.1,0.3-0.1c0.1,0,0.2,0,0.3,0.1c0.1,0.1,0.2,0.1,0.2,0.2s0.1,0.2,0.1,0.3s0,0.2,0,0.4V318z"/>
			<path fill="#39D1B4" d="M489.9,318.9c-0.1,0-0.2,0-0.3,0c-0.1,0-0.2-0.1-0.3-0.2c-0.1-0.1-0.2-0.2-0.2-0.3s0-0.2,0-0.3v-11.1
				c0-0.2,0-0.3,0-0.4s0-0.2,0.1-0.3s0.1-0.2,0.2-0.2s0.2-0.1,0.3-0.1c0.1,0,0.2,0,0.3,0.1c0.1,0.1,0.2,0.1,0.2,0.2s0.1,0.2,0.1,0.3
				s0,0.2,0,0.4v10.7h5.7c0.2,0,0.3,0,0.4,0s0.1,0,0.2,0.1c0.2,0.1,0.3,0.3,0.3,0.5c0,0.2-0.1,0.4-0.3,0.5c-0.1,0-0.1,0.1-0.2,0.1
				c-0.1,0-0.2,0-0.4,0H489.9z"/>
			<path fill="#39D1B4" d="M506.5,306.1c0.2,0,0.3,0,0.4,0c0.1,0,0.2,0,0.2,0.1c0.2,0.1,0.3,0.3,0.3,0.5c0,0.2-0.1,0.4-0.3,0.5
				c-0.1,0-0.1,0.1-0.2,0.1s-0.2,0-0.4,0h-5.8v4.5h4.8c0.2,0,0.3,0,0.4,0c0.1,0,0.1,0,0.2,0.1c0.2,0.1,0.3,0.3,0.3,0.5
				s-0.1,0.4-0.3,0.5c-0.1,0-0.1,0.1-0.2,0.1c-0.1,0-0.2,0-0.4,0h-4.8v4.6h5.8c0.2,0,0.3,0,0.4,0s0.2,0,0.2,0.1
				c0.2,0.1,0.3,0.3,0.3,0.5c0,0.2-0.1,0.4-0.3,0.5c-0.1,0-0.1,0.1-0.2,0.1c-0.1,0-0.2,0-0.4,0h-6.3c-0.1,0-0.2,0-0.3,0
				c-0.1,0-0.2-0.1-0.3-0.2c-0.1-0.1-0.2-0.2-0.2-0.3s0-0.2,0-0.3v-11.1c0-0.1,0-0.2,0-0.3c0-0.1,0.1-0.2,0.2-0.3
				c0.1-0.1,0.2-0.2,0.3-0.2c0.1,0,0.2,0,0.3,0H506.5z"/>
			<path fill="#39D1B4" d="M455.2,328.3c0-0.1,0.1-0.2,0.1-0.3c0-0.1,0.1-0.1,0.1-0.2c0.1-0.1,0.1-0.1,0.2-0.2s0.2-0.1,0.3-0.1
				c0.1,0,0.2,0,0.3,0.1s0.2,0.1,0.2,0.2c0,0.1,0.1,0.1,0.1,0.2c0,0.1,0.1,0.2,0.1,0.3l4.2,11.1c0,0.1,0.1,0.2,0.1,0.3s0,0.2,0,0.2
				c0,0.1,0,0.2,0,0.2c0,0.1-0.1,0.1-0.1,0.2c-0.1,0.1-0.1,0.1-0.2,0.2s-0.2,0.1-0.3,0.1c-0.1,0-0.2,0-0.4-0.1
				c-0.1-0.1-0.1-0.1-0.2-0.2c0-0.1-0.1-0.2-0.2-0.4l-0.8-2.3h-5.7l-0.8,2.3c-0.1,0.2-0.1,0.3-0.2,0.4c0,0.1-0.1,0.1-0.2,0.2
				c-0.1,0.1-0.2,0.1-0.3,0.1c-0.2,0-0.4-0.1-0.5-0.2c-0.1-0.1-0.1-0.1-0.1-0.2s0-0.2,0-0.2c0-0.1,0-0.2,0-0.2s0.1-0.2,0.1-0.3
				L455.2,328.3z M453.6,336.4h4.8l-2.4-6.6L453.6,336.4z"/>
			<path fill="#39D1B4" d="M464.2,340.5c-0.1,0-0.2,0-0.3,0c-0.1,0-0.2-0.1-0.3-0.2s-0.2-0.2-0.2-0.3c0-0.1,0-0.2,0-0.3v-11.1
				c0-0.1,0-0.2,0-0.3s0.1-0.2,0.2-0.3c0.1-0.1,0.2-0.2,0.3-0.2s0.2,0,0.3,0h3.6c0.7,0,1.4,0.1,1.9,0.3c0.5,0.2,1,0.6,1.5,1
				c0.3,0.3,0.5,0.7,0.7,1c0.2,0.4,0.3,0.8,0.3,1.2c0.1,0.4,0.1,0.9,0.1,1.4c0,0.5,0,1,0,1.4s0,1,0,1.4c0,0.5-0.1,0.9-0.1,1.4
				c-0.1,0.4-0.2,0.8-0.3,1.2c-0.2,0.4-0.4,0.7-0.7,1c-0.4,0.5-0.9,0.8-1.5,1c-0.5,0.2-1.2,0.3-1.9,0.3H464.2z M464.7,328.9v10.4
				h2.8c0.5,0,1-0.1,1.4-0.2c0.4-0.1,0.8-0.4,1.1-0.7c0.2-0.2,0.4-0.5,0.5-0.8c0.1-0.3,0.2-0.6,0.2-1c0.1-0.4,0.1-0.8,0.1-1.2
				c0-0.4,0-0.8,0-1.3c0-0.4,0-0.9,0-1.3c0-0.4,0-0.8-0.1-1.2c-0.1-0.4-0.1-0.7-0.2-1c-0.1-0.3-0.3-0.6-0.5-0.8
				c-0.3-0.4-0.7-0.6-1.1-0.7c-0.4-0.1-0.9-0.2-1.4-0.2H464.7z"/>
			<path fill="#39D1B4" d="M476.3,340.5c-0.1,0-0.2,0-0.3,0c-0.1,0-0.2-0.1-0.3-0.2s-0.2-0.2-0.2-0.3c0-0.1,0-0.2,0-0.3v-11.1
				c0-0.1,0-0.2,0-0.3c0-0.1,0.1-0.2,0.2-0.3c0.1-0.1,0.2-0.2,0.3-0.2c0.1,0,0.2,0,0.3,0h3.6c0.7,0,1.4,0.1,1.9,0.3
				c0.5,0.2,1,0.6,1.5,1c0.3,0.3,0.5,0.7,0.7,1c0.2,0.4,0.3,0.8,0.3,1.2c0.1,0.4,0.1,0.9,0.1,1.4s0,1,0,1.4s0,1,0,1.4
				c0,0.5-0.1,0.9-0.1,1.4c-0.1,0.4-0.2,0.8-0.3,1.2c-0.2,0.4-0.4,0.7-0.7,1c-0.4,0.5-0.9,0.8-1.5,1c-0.5,0.2-1.2,0.3-1.9,0.3H476.3
				z M476.9,328.9v10.4h2.8c0.5,0,1-0.1,1.4-0.2c0.4-0.1,0.8-0.4,1.1-0.7c0.2-0.2,0.4-0.5,0.5-0.8s0.2-0.6,0.2-1
				c0.1-0.4,0.1-0.8,0.1-1.2s0-0.8,0-1.3c0-0.4,0-0.9,0-1.3s0-0.8-0.1-1.2c-0.1-0.4-0.1-0.7-0.2-1c-0.1-0.3-0.3-0.6-0.5-0.8
				c-0.3-0.4-0.7-0.6-1.1-0.7c-0.4-0.1-0.9-0.2-1.4-0.2H476.9z"/>
			<path fill="#39D1B4" d="M487.6,328.5c0-0.1,0-0.2,0-0.3s0.1-0.2,0.2-0.3c0.1-0.1,0.2-0.2,0.3-0.2s0.2,0,0.3,0h4.1
				c0.6,0,1.1,0.1,1.5,0.2c0.5,0.2,0.9,0.4,1.2,0.7c0.3,0.3,0.6,0.7,0.8,1.1c0.2,0.4,0.3,0.9,0.3,1.5c0,0.5-0.1,0.9-0.2,1.3
				c-0.1,0.4-0.3,0.7-0.6,1s-0.5,0.5-0.9,0.7s-0.7,0.3-1.1,0.4l2.7,4.6c0.1,0.1,0.1,0.3,0.2,0.4s0,0.2,0,0.3c0,0.2-0.1,0.4-0.4,0.5
				c-0.1,0.1-0.2,0.1-0.4,0.1c-0.2,0-0.3-0.1-0.4-0.2c-0.1-0.1-0.2-0.2-0.3-0.4l-3-5.2H489v4.8c0,0.2,0,0.3,0,0.4
				c0,0.1,0,0.2-0.1,0.3c-0.1,0.1-0.1,0.2-0.2,0.2c-0.1,0.1-0.2,0.1-0.3,0.1c-0.1,0-0.2,0-0.3-0.1c-0.1-0.1-0.2-0.1-0.2-0.2
				s-0.1-0.2-0.1-0.3s0-0.2,0-0.4V328.5z M489,328.9v4.7h3.4c0.4,0,0.7,0,1-0.1c0.3-0.1,0.6-0.2,0.8-0.4c0.2-0.2,0.4-0.4,0.5-0.7
				c0.1-0.3,0.2-0.6,0.2-1s-0.1-0.7-0.2-1s-0.3-0.5-0.5-0.7c-0.2-0.2-0.5-0.3-0.8-0.4c-0.3-0.1-0.7-0.1-1-0.1H489z"/>
			<path fill="#39D1B4" d="M506.6,327.7c0.2,0,0.3,0,0.4,0s0.2,0,0.2,0.1c0.2,0.1,0.3,0.3,0.3,0.5c0,0.2-0.1,0.4-0.3,0.5
				c-0.1,0-0.1,0.1-0.2,0.1c-0.1,0-0.2,0-0.4,0h-5.8v4.5h4.8c0.2,0,0.3,0,0.4,0s0.1,0,0.2,0.1c0.2,0.1,0.3,0.3,0.3,0.5
				c0,0.2-0.1,0.4-0.3,0.5c-0.1,0-0.1,0.1-0.2,0.1c-0.1,0-0.2,0-0.4,0h-4.8v4.6h5.8c0.2,0,0.3,0,0.4,0c0.1,0,0.2,0,0.2,0.1
				c0.2,0.1,0.3,0.3,0.3,0.5s-0.1,0.4-0.3,0.5c-0.1,0-0.1,0.1-0.2,0.1c-0.1,0-0.2,0-0.4,0h-6.3c-0.1,0-0.2,0-0.3,0
				c-0.1,0-0.2-0.1-0.3-0.2c-0.1-0.1-0.2-0.2-0.2-0.3c0-0.1,0-0.2,0-0.3v-11.1c0-0.1,0-0.2,0-0.3s0.1-0.2,0.2-0.3
				c0.1-0.1,0.2-0.2,0.3-0.2s0.2,0,0.3,0H506.6z"/>
			<path fill="#39D1B4" d="M512.8,334.5c-0.2,0-0.5-0.1-0.7-0.1c-0.2-0.1-0.4-0.1-0.6-0.2c-0.2-0.1-0.4-0.2-0.5-0.3
				c-0.2-0.1-0.3-0.2-0.5-0.4c-0.3-0.3-0.6-0.6-0.8-1c-0.2-0.4-0.2-0.8-0.2-1.3c0-0.5,0.1-1,0.3-1.5c0.2-0.4,0.5-0.8,0.8-1.1
				c0.4-0.3,0.8-0.6,1.3-0.7c0.5-0.2,1.1-0.3,1.7-0.3c0.3,0,0.6,0,0.9,0c0.3,0,0.5,0.1,0.8,0.2s0.5,0.2,0.7,0.3
				c0.2,0.1,0.5,0.3,0.8,0.4c0.1,0.1,0.3,0.2,0.4,0.3s0.2,0.2,0.2,0.4c0,0.2-0.1,0.3-0.2,0.4c-0.1,0.1-0.3,0.2-0.4,0.2
				c-0.1,0-0.2,0-0.3-0.1c-0.1,0-0.2-0.1-0.3-0.2c-0.2-0.1-0.4-0.3-0.6-0.4c-0.2-0.1-0.4-0.2-0.6-0.2c-0.2-0.1-0.4-0.1-0.6-0.1
				c-0.2,0-0.5,0-0.7,0c-0.4,0-0.8,0.1-1.2,0.2s-0.6,0.3-0.9,0.5c-0.2,0.2-0.4,0.5-0.5,0.7s-0.2,0.6-0.2,1c0,0.3,0,0.6,0.1,0.9
				c0.1,0.3,0.2,0.5,0.4,0.6c0.1,0.1,0.2,0.2,0.3,0.3c0.1,0.1,0.2,0.1,0.4,0.2c0.1,0.1,0.3,0.1,0.4,0.1c0.2,0,0.3,0.1,0.6,0.1
				l1.4,0.2c0.3,0,0.6,0.1,0.8,0.2c0.2,0.1,0.4,0.1,0.6,0.2c0.2,0.1,0.4,0.2,0.5,0.2c0.1,0.1,0.3,0.2,0.4,0.3
				c0.3,0.3,0.6,0.7,0.8,1.1c0.2,0.4,0.3,0.9,0.3,1.4c0,0.6-0.1,1.1-0.3,1.5s-0.5,0.8-0.9,1.1c-0.4,0.3-0.9,0.6-1.4,0.7
				c-0.5,0.2-1.2,0.3-1.8,0.3c-0.4,0-0.8,0-1.1-0.1s-0.6-0.1-0.9-0.2c-0.3-0.1-0.6-0.2-0.8-0.3s-0.5-0.3-0.8-0.5
				c-0.2-0.1-0.3-0.2-0.4-0.4s-0.2-0.3-0.2-0.4c0-0.1,0-0.2,0-0.2c0-0.1,0.1-0.2,0.1-0.2c0.1-0.1,0.3-0.2,0.4-0.2
				c0.1,0,0.2,0,0.3,0.1c0.1,0,0.2,0.1,0.4,0.2c0.2,0.2,0.5,0.3,0.7,0.5s0.5,0.2,0.7,0.3c0.2,0.1,0.5,0.1,0.8,0.2
				c0.3,0,0.6,0.1,0.9,0.1c0.5,0,0.9-0.1,1.3-0.2c0.4-0.1,0.7-0.3,1-0.5c0.3-0.2,0.5-0.5,0.6-0.7c0.1-0.3,0.2-0.6,0.2-1
				c0-0.3-0.1-0.6-0.2-0.9c-0.1-0.3-0.3-0.5-0.5-0.7c-0.1-0.1-0.2-0.2-0.3-0.2c-0.1-0.1-0.2-0.1-0.3-0.2c-0.1,0-0.3-0.1-0.4-0.1
				s-0.4-0.1-0.6-0.1L512.8,334.5z"/>
			<path fill="#39D1B4" d="M523.3,334.5c-0.2,0-0.5-0.1-0.7-0.1c-0.2-0.1-0.4-0.1-0.6-0.2c-0.2-0.1-0.4-0.2-0.5-0.3
				c-0.2-0.1-0.3-0.2-0.5-0.4c-0.3-0.3-0.6-0.6-0.8-1c-0.2-0.4-0.2-0.8-0.2-1.3c0-0.5,0.1-1,0.3-1.5c0.2-0.4,0.5-0.8,0.8-1.1
				c0.4-0.3,0.8-0.6,1.3-0.7s1.1-0.3,1.7-0.3c0.3,0,0.6,0,0.9,0c0.3,0,0.5,0.1,0.8,0.2c0.2,0.1,0.5,0.2,0.7,0.3
				c0.2,0.1,0.5,0.3,0.8,0.4c0.2,0.1,0.3,0.2,0.4,0.3s0.2,0.2,0.2,0.4c0,0.2-0.1,0.3-0.2,0.4c-0.1,0.1-0.3,0.2-0.4,0.2
				c-0.1,0-0.2,0-0.3-0.1c-0.1,0-0.2-0.1-0.3-0.2c-0.2-0.1-0.4-0.3-0.6-0.4s-0.4-0.2-0.6-0.2c-0.2-0.1-0.4-0.1-0.6-0.1
				c-0.2,0-0.5,0-0.7,0c-0.4,0-0.8,0.1-1.2,0.2s-0.6,0.3-0.8,0.5c-0.2,0.2-0.4,0.5-0.5,0.7s-0.2,0.6-0.2,1c0,0.3,0,0.6,0.1,0.9
				s0.2,0.5,0.5,0.6c0.1,0.1,0.2,0.2,0.3,0.3c0.1,0.1,0.2,0.1,0.4,0.2c0.1,0.1,0.3,0.1,0.4,0.1s0.3,0.1,0.6,0.1l1.4,0.2
				c0.3,0,0.6,0.1,0.8,0.2c0.2,0.1,0.4,0.1,0.6,0.2c0.2,0.1,0.4,0.2,0.5,0.2c0.1,0.1,0.3,0.2,0.4,0.3c0.3,0.3,0.6,0.7,0.8,1.1
				c0.2,0.4,0.3,0.9,0.3,1.4c0,0.6-0.1,1.1-0.3,1.5c-0.2,0.5-0.5,0.8-0.9,1.1c-0.4,0.3-0.9,0.6-1.4,0.7c-0.5,0.2-1.2,0.3-1.8,0.3
				c-0.4,0-0.8,0-1.1-0.1c-0.3,0-0.6-0.1-0.9-0.2c-0.3-0.1-0.6-0.2-0.8-0.3s-0.5-0.3-0.8-0.5c-0.2-0.1-0.3-0.2-0.4-0.4
				s-0.2-0.3-0.2-0.4c0-0.1,0-0.2,0-0.2s0.1-0.2,0.1-0.2c0.1-0.1,0.3-0.2,0.4-0.2c0.1,0,0.2,0,0.3,0.1c0.1,0,0.2,0.1,0.4,0.2
				c0.2,0.2,0.5,0.3,0.7,0.5s0.5,0.2,0.7,0.3s0.5,0.1,0.8,0.2s0.6,0.1,0.9,0.1c0.5,0,0.9-0.1,1.3-0.2c0.4-0.1,0.7-0.3,1-0.5
				s0.5-0.5,0.6-0.7c0.1-0.3,0.2-0.6,0.2-1c0-0.3-0.1-0.6-0.2-0.9c-0.1-0.3-0.3-0.5-0.5-0.7c-0.1-0.1-0.2-0.2-0.3-0.2
				c-0.1-0.1-0.2-0.1-0.3-0.2c-0.1,0-0.3-0.1-0.4-0.1s-0.4-0.1-0.6-0.1L523.3,334.5z"/>
		</g>
	</g>
	<g>
		<g>
			<path fill="#F15B5C" d="M372,165.5c0-0.1,0.1-0.2,0.1-0.3c0-0.1,0.1-0.1,0.1-0.2c0.1-0.1,0.1-0.1,0.2-0.2s0.2-0.1,0.3-0.1
				c0.1,0,0.2,0,0.3,0.1s0.2,0.1,0.2,0.2c0,0.1,0.1,0.1,0.1,0.2c0,0.1,0.1,0.2,0.1,0.3l4.2,11.1c0,0.1,0.1,0.2,0.1,0.3s0,0.2,0,0.2
				c0,0.1,0,0.1,0,0.2c0,0.1-0.1,0.1-0.1,0.2c-0.1,0.1-0.1,0.1-0.2,0.2s-0.2,0.1-0.3,0.1c-0.1,0-0.2,0-0.4-0.1
				c-0.1-0.1-0.1-0.1-0.2-0.2s-0.1-0.2-0.2-0.4l-0.8-2.3h-5.7L369,177c-0.1,0.2-0.1,0.3-0.2,0.4c0,0.1-0.1,0.1-0.2,0.2
				c-0.1,0.1-0.2,0.1-0.3,0.1c-0.2,0-0.4-0.1-0.5-0.2c-0.1-0.1-0.1-0.1-0.1-0.2s0-0.2,0-0.2c0-0.1,0-0.2,0-0.2s0.1-0.2,0.1-0.3
				L372,165.5z M370.3,173.5h4.8l-2.4-6.6L370.3,173.5z"/>
			<path fill="#F15B5C" d="M385.7,164.8c0.2,0,0.3,0,0.4,0c0.1,0,0.2,0,0.2,0.1c0.2,0.1,0.3,0.3,0.3,0.5c0,0.2-0.1,0.4-0.3,0.5
				c-0.1,0-0.1,0.1-0.2,0.1s-0.2,0-0.4,0h-2.9v10.7c0,0.2,0,0.3,0,0.4c0,0.1,0,0.2-0.1,0.3c-0.1,0.1-0.1,0.2-0.2,0.2
				s-0.2,0.1-0.3,0.1s-0.2,0-0.3-0.1c-0.1-0.1-0.2-0.1-0.2-0.2c-0.1-0.1-0.1-0.2-0.1-0.3c0-0.1,0-0.2,0-0.4V166h-2.9
				c-0.2,0-0.3,0-0.4,0s-0.1,0-0.2-0.1c-0.2-0.1-0.3-0.3-0.3-0.5c0-0.2,0.1-0.4,0.3-0.5c0.1,0,0.1-0.1,0.2-0.1c0.1,0,0.2,0,0.4,0
				H385.7z"/>
			<path fill="#F15B5C" d="M395.5,164.8c0.2,0,0.3,0,0.4,0c0.1,0,0.2,0,0.2,0.1c0.2,0.1,0.3,0.3,0.3,0.5c0,0.2-0.1,0.4-0.3,0.5
				c-0.1,0-0.1,0.1-0.2,0.1s-0.2,0-0.4,0h-2.9v10.7c0,0.2,0,0.3,0,0.4c0,0.1,0,0.2-0.1,0.3c-0.1,0.1-0.1,0.2-0.2,0.2
				c-0.1,0.1-0.2,0.1-0.3,0.1c-0.1,0-0.2,0-0.3-0.1s-0.2-0.1-0.2-0.2s-0.1-0.2-0.1-0.3s0-0.2,0-0.4V166h-2.9c-0.2,0-0.3,0-0.4,0
				c-0.1,0-0.1,0-0.2-0.1c-0.2-0.1-0.3-0.3-0.3-0.5c0-0.2,0.1-0.4,0.3-0.5c0.1,0,0.1-0.1,0.2-0.1c0.1,0,0.2,0,0.4,0H395.5z"/>
			<path fill="#F15B5C" d="M398.7,165.6c0-0.1,0-0.2,0-0.3c0-0.1,0.1-0.2,0.2-0.3c0.1-0.1,0.2-0.2,0.3-0.2c0.1,0,0.2,0,0.3,0h4.1
				c0.6,0,1.1,0.1,1.5,0.2c0.5,0.2,0.9,0.4,1.2,0.7c0.3,0.3,0.6,0.7,0.8,1.1c0.2,0.4,0.3,0.9,0.3,1.5c0,0.5-0.1,0.9-0.2,1.3
				c-0.1,0.4-0.3,0.7-0.6,1c-0.2,0.3-0.5,0.5-0.9,0.7s-0.7,0.3-1.1,0.4l2.7,4.6c0.1,0.1,0.1,0.3,0.2,0.4c0,0.1,0,0.2,0,0.3
				c0,0.2-0.1,0.4-0.4,0.5c-0.1,0.1-0.2,0.1-0.4,0.1c-0.2,0-0.3-0.1-0.4-0.2c-0.1-0.1-0.2-0.2-0.3-0.4l-3-5.2h-3.1v4.8
				c0,0.2,0,0.3,0,0.4s0,0.2-0.1,0.3s-0.1,0.2-0.2,0.2c-0.1,0.1-0.2,0.1-0.3,0.1c-0.1,0-0.2,0-0.3-0.1s-0.2-0.1-0.2-0.2
				s-0.1-0.2-0.1-0.3s0-0.2,0-0.4V165.6z M400.1,166v4.7h3.4c0.4,0,0.7,0,1-0.1c0.3-0.1,0.6-0.2,0.8-0.4c0.2-0.2,0.4-0.4,0.5-0.7
				c0.1-0.3,0.2-0.6,0.2-1c0-0.4-0.1-0.7-0.2-1s-0.3-0.5-0.5-0.7c-0.2-0.2-0.5-0.3-0.8-0.4c-0.3-0.1-0.7-0.1-1-0.1H400.1z"/>
			<path fill="#F15B5C" d="M411.9,176.8c0,0.2,0,0.3,0,0.4s0,0.2-0.1,0.3s-0.1,0.2-0.2,0.2c-0.1,0.1-0.2,0.1-0.3,0.1
				c-0.1,0-0.2,0-0.3-0.1s-0.2-0.1-0.2-0.2s-0.1-0.2-0.1-0.3s0-0.2,0-0.4v-11.1c0-0.2,0-0.3,0-0.4c0-0.1,0-0.2,0.1-0.3
				c0.1-0.1,0.1-0.2,0.2-0.2c0.1-0.1,0.2-0.1,0.3-0.1c0.1,0,0.2,0,0.3,0.1c0.1,0.1,0.2,0.1,0.2,0.2c0.1,0.1,0.1,0.2,0.1,0.3
				c0,0.1,0,0.2,0,0.4V176.8z"/>
			<path fill="#F15B5C" d="M416.4,177.6c-0.1,0-0.2,0-0.3,0c-0.1,0-0.2-0.1-0.3-0.2c-0.1-0.1-0.2-0.2-0.2-0.3c0-0.1,0-0.2,0-0.3
				v-11.1c0-0.1,0-0.2,0-0.3c0-0.1,0.1-0.2,0.2-0.3c0.1-0.1,0.2-0.2,0.3-0.2c0.1,0,0.2,0,0.3,0h4c0.6,0,1.1,0.1,1.5,0.2
				c0.5,0.2,0.9,0.4,1.2,0.7c0.3,0.3,0.6,0.7,0.8,1.1c0.2,0.4,0.3,0.9,0.3,1.4c0,0.3,0,0.7-0.1,0.9c-0.1,0.3-0.2,0.6-0.4,0.8
				c-0.2,0.2-0.4,0.5-0.6,0.6c-0.2,0.2-0.5,0.3-0.8,0.4c0.3,0.1,0.6,0.3,0.8,0.5c0.3,0.2,0.5,0.4,0.7,0.7c0.2,0.3,0.3,0.5,0.4,0.9
				c0.1,0.3,0.2,0.7,0.2,1.1c0,0.6-0.1,1.1-0.3,1.5c-0.2,0.4-0.4,0.8-0.8,1.1c-0.3,0.3-0.7,0.5-1.2,0.7s-1,0.2-1.6,0.2H416.4z
				 M417,166v4.4h3.3c0.4,0,0.7,0,1-0.1s0.6-0.2,0.8-0.4c0.2-0.2,0.4-0.4,0.5-0.7c0.1-0.3,0.2-0.6,0.2-1c0-0.4-0.1-0.7-0.2-1
				c-0.1-0.3-0.3-0.5-0.5-0.7c-0.2-0.2-0.5-0.3-0.8-0.4s-0.6-0.1-1-0.1H417z M417,171.7v4.7h3.5c0.4,0,0.8-0.1,1.1-0.2
				c0.3-0.1,0.6-0.3,0.8-0.5c0.2-0.2,0.4-0.5,0.5-0.7c0.1-0.3,0.2-0.6,0.2-1s-0.1-0.7-0.2-1c-0.1-0.3-0.3-0.5-0.5-0.7
				c-0.2-0.2-0.5-0.4-0.8-0.5c-0.3-0.1-0.7-0.2-1.1-0.2H417z"/>
			<path fill="#F15B5C" d="M436.4,173.4c0,0.6-0.1,1.2-0.3,1.8c-0.2,0.5-0.5,1-0.9,1.4c-0.4,0.4-0.9,0.7-1.4,0.9
				c-0.6,0.2-1.2,0.3-1.8,0.3c-0.6,0-1.2-0.1-1.8-0.3s-1-0.5-1.4-0.9c-0.4-0.4-0.7-0.8-0.9-1.4c-0.2-0.5-0.3-1.1-0.3-1.8v-7.7
				c0-0.2,0-0.3,0-0.4c0-0.1,0-0.2,0.1-0.3c0.1-0.1,0.1-0.2,0.2-0.2c0.1-0.1,0.2-0.1,0.3-0.1c0.1,0,0.2,0,0.3,0.1
				c0.1,0.1,0.2,0.1,0.2,0.2c0.1,0.1,0.1,0.2,0.1,0.3c0,0.1,0,0.2,0,0.4v7.6c0,0.5,0.1,0.9,0.2,1.3c0.1,0.4,0.4,0.7,0.6,1
				c0.3,0.3,0.6,0.5,1,0.7c0.4,0.2,0.8,0.2,1.3,0.2c0.5,0,0.9-0.1,1.3-0.2c0.4-0.2,0.7-0.4,1-0.7c0.3-0.3,0.5-0.6,0.6-1
				c0.1-0.4,0.2-0.8,0.2-1.3v-7.6c0-0.2,0-0.3,0-0.4c0-0.1,0-0.2,0.1-0.3c0.1-0.1,0.1-0.2,0.2-0.2c0.1-0.1,0.2-0.1,0.3-0.1
				s0.2,0,0.3,0.1c0.1,0.1,0.2,0.1,0.2,0.2c0.1,0.1,0.1,0.2,0.1,0.3c0,0.1,0,0.2,0,0.4V173.4z"/>
			<path fill="#F15B5C" d="M446.6,164.8c0.2,0,0.3,0,0.4,0c0.1,0,0.1,0,0.2,0.1c0.2,0.1,0.3,0.3,0.3,0.5c0,0.2-0.1,0.4-0.3,0.5
				c-0.1,0-0.1,0.1-0.2,0.1c-0.1,0-0.2,0-0.4,0h-2.9v10.7c0,0.2,0,0.3,0,0.4s0,0.2-0.1,0.3c-0.1,0.1-0.1,0.2-0.2,0.2
				c-0.1,0.1-0.2,0.1-0.3,0.1c-0.1,0-0.2,0-0.3-0.1s-0.2-0.1-0.2-0.2s-0.1-0.2-0.1-0.3s0-0.2,0-0.4V166h-2.9c-0.2,0-0.3,0-0.4,0
				s-0.2,0-0.2-0.1c-0.2-0.1-0.3-0.3-0.3-0.5c0-0.2,0.1-0.4,0.3-0.5c0.1,0,0.1-0.1,0.2-0.1c0.1,0,0.2,0,0.4,0H446.6z"/>
			<path fill="#F15B5C" d="M457,164.8c0.2,0,0.3,0,0.4,0c0.1,0,0.2,0,0.2,0.1c0.2,0.1,0.3,0.3,0.3,0.5c0,0.2-0.1,0.4-0.3,0.5
				c-0.1,0-0.1,0.1-0.2,0.1s-0.2,0-0.4,0h-5.8v4.5h4.8c0.2,0,0.3,0,0.4,0c0.1,0,0.1,0,0.2,0.1c0.2,0.1,0.3,0.3,0.3,0.5
				s-0.1,0.4-0.3,0.5c-0.1,0-0.1,0.1-0.2,0.1c-0.1,0-0.2,0-0.4,0h-4.8v4.6h5.8c0.2,0,0.3,0,0.4,0c0.1,0,0.2,0,0.2,0.1
				c0.2,0.1,0.3,0.3,0.3,0.5c0,0.2-0.1,0.4-0.3,0.5c-0.1,0-0.1,0.1-0.2,0.1c-0.1,0-0.2,0-0.4,0h-6.3c-0.1,0-0.2,0-0.3,0
				c-0.1,0-0.2-0.1-0.3-0.2c-0.1-0.1-0.2-0.2-0.2-0.3c0-0.1,0-0.2,0-0.3v-11.1c0-0.1,0-0.2,0-0.3c0-0.1,0.1-0.2,0.2-0.3
				c0.1-0.1,0.2-0.2,0.3-0.2c0.1,0,0.2,0,0.3,0H457z"/>
			<path fill="#F15B5C" d="M399.5,198.4c0,0.3-0.1,0.5-0.2,0.7s-0.3,0.2-0.5,0.2c-0.2,0-0.3,0-0.4-0.1c-0.1-0.1-0.2-0.2-0.4-0.4
				l-6.6-9.7v9.3c0,0.2,0,0.3,0,0.4c0,0.1,0,0.2-0.1,0.3c-0.1,0.1-0.1,0.2-0.2,0.2c-0.1,0.1-0.2,0.1-0.3,0.1s-0.2,0-0.3-0.1
				c-0.1-0.1-0.2-0.1-0.2-0.2c-0.1-0.1-0.1-0.2-0.1-0.3c0-0.1,0-0.2,0-0.4v-11.1c0-0.3,0.1-0.5,0.2-0.7c0.1-0.1,0.3-0.2,0.5-0.2
				c0.2,0,0.3,0,0.4,0.1c0.1,0.1,0.2,0.2,0.4,0.4l6.6,9.7v-9.3c0-0.2,0-0.3,0-0.4c0-0.1,0-0.2,0.1-0.3c0.1-0.1,0.1-0.2,0.2-0.2
				c0.1-0.1,0.2-0.1,0.3-0.1c0.1,0,0.2,0,0.3,0.1c0.1,0.1,0.2,0.1,0.2,0.2c0.1,0.1,0.1,0.2,0.1,0.3c0,0.1,0,0.2,0,0.4V198.4z"/>
			<path fill="#F15B5C" d="M406.1,187.1c0-0.1,0.1-0.2,0.1-0.3c0-0.1,0.1-0.1,0.1-0.2c0.1-0.1,0.1-0.1,0.2-0.2s0.2-0.1,0.3-0.1
				c0.1,0,0.2,0,0.3,0.1s0.2,0.1,0.2,0.2c0,0.1,0.1,0.1,0.1,0.2s0.1,0.2,0.1,0.3l4.2,11.1c0,0.1,0.1,0.2,0.1,0.3s0,0.2,0,0.2
				c0,0.1,0,0.1,0,0.2c0,0.1-0.1,0.1-0.1,0.2c-0.1,0.1-0.1,0.1-0.2,0.2c-0.1,0-0.2,0.1-0.3,0.1c-0.1,0-0.2,0-0.4-0.1
				c-0.1-0.1-0.1-0.1-0.2-0.2c0-0.1-0.1-0.2-0.2-0.4l-0.8-2.3H404l-0.8,2.3c-0.1,0.2-0.1,0.3-0.2,0.4c0,0.1-0.1,0.1-0.2,0.2
				c-0.1,0.1-0.2,0.1-0.3,0.1c-0.2,0-0.4-0.1-0.5-0.2c-0.1-0.1-0.1-0.1-0.1-0.2c0-0.1,0-0.1,0-0.2c0-0.1,0-0.2,0-0.2
				s0.1-0.2,0.1-0.3L406.1,187.1z M404.4,195.1h4.8l-2.4-6.6L404.4,195.1z"/>
			<path fill="#F15B5C" d="M419.7,197.3c-0.2,0-0.4-0.1-0.5-0.2c-0.1-0.1-0.2-0.3-0.3-0.5l-3.3-7.1v8.8c0,0.2,0,0.3,0,0.4
				s0,0.2-0.1,0.3s-0.1,0.2-0.2,0.2c-0.1,0.1-0.2,0.1-0.3,0.1c-0.1,0-0.2,0-0.3-0.1c-0.1-0.1-0.2-0.1-0.2-0.2s-0.1-0.2-0.1-0.3
				s0-0.2,0-0.4v-11.1c0-0.1,0-0.3,0-0.4s0.1-0.2,0.2-0.3c0.1-0.1,0.1-0.1,0.2-0.2c0.1,0,0.2,0,0.3,0s0.2,0,0.2,0s0.1,0,0.2,0.1
				c0.1,0.1,0.3,0.2,0.4,0.5l4,8.6l4-8.6c0.1-0.2,0.2-0.4,0.4-0.5c0.1,0,0.1-0.1,0.2-0.1c0.1,0,0.1,0,0.2,0s0.2,0,0.3,0
				c0.1,0,0.2,0.1,0.2,0.2c0.1,0.1,0.1,0.2,0.2,0.3c0,0.1,0,0.2,0,0.4v11.1c0,0.2,0,0.3,0,0.4c0,0.1,0,0.2-0.1,0.3
				c-0.1,0.1-0.1,0.2-0.2,0.2c-0.1,0.1-0.2,0.1-0.3,0.1s-0.2,0-0.3-0.1c-0.1-0.1-0.2-0.1-0.2-0.2c-0.1-0.1-0.1-0.2-0.1-0.3
				c0-0.1,0-0.2,0-0.4v-8.8l-3.3,7.1c-0.1,0.2-0.2,0.4-0.3,0.5C420.1,197.3,419.9,197.3,419.7,197.3z"/>
			<path fill="#F15B5C" d="M436.1,186.4c0.2,0,0.3,0,0.4,0s0.1,0,0.2,0.1c0.2,0.1,0.3,0.3,0.3,0.5c0,0.2-0.1,0.4-0.3,0.5
				c-0.1,0-0.1,0.1-0.2,0.1c-0.1,0-0.2,0-0.4,0h-5.8v4.5h4.8c0.2,0,0.3,0,0.4,0c0.1,0,0.1,0,0.2,0.1c0.2,0.1,0.3,0.3,0.3,0.5
				c0,0.2-0.1,0.4-0.3,0.5c-0.1,0-0.1,0.1-0.2,0.1c-0.1,0-0.2,0-0.4,0h-4.8v4.6h5.8c0.2,0,0.3,0,0.4,0c0.1,0,0.1,0,0.2,0.1
				c0.2,0.1,0.3,0.3,0.3,0.5c0,0.2-0.1,0.4-0.3,0.5c-0.1,0-0.1,0.1-0.2,0.1c-0.1,0-0.2,0-0.4,0h-6.3c-0.1,0-0.2,0-0.3,0
				c-0.1,0-0.2-0.1-0.3-0.2c-0.1-0.1-0.2-0.2-0.2-0.3c0-0.1,0-0.2,0-0.3v-11.1c0-0.1,0-0.2,0-0.3c0-0.1,0.1-0.2,0.2-0.3
				c0.1-0.1,0.2-0.2,0.3-0.2c0.1,0,0.2,0,0.3,0H436.1z"/>
		</g>
	</g>
	<line fill="none" stroke="#39D1B4" stroke-miterlimit="10" x1="454" y1="286.5" x2="526" y2="286.5"/>
	<line fill="none" stroke="#F15B5C" stroke-miterlimit="10" x1="393" y1="224.5" x2="433" y2="224.5"/>
</g>
</svg>
