<?xml version="1.0" encoding="utf-8"?>
<!-- Generator: Adobe Illustrator 18.0.0, SVG Export Plug-In . SVG Version: 6.00 Build 0)  -->
<!DOCTYPE svg PUBLIC "-//W3C//DTD SVG 1.1//EN" "http://www.w3.org/Graphics/SVG/1.1/DTD/svg11.dtd">
<svg version="1.1" xmlns="http://www.w3.org/2000/svg" xmlns:xlink="http://www.w3.org/1999/xlink" x="0px" y="0px"
	 viewBox="0 0 960 524" enable-background="new 0 0 960 524" xml:space="preserve">
<g id="Background">
	<rect fill="#204056" width="960" height="524"/>
</g>
<g id="Layer_1">
	<g>
		<path fill="#39D1B4" d="M373.1,246c0.3,0,0.6,0.1,0.9,0.1c0.3,0.1,0.6,0.1,0.8,0.2s0.5,0.2,0.8,0.4c0.3,0.1,0.6,0.3,0.9,0.5
			c0.2,0.1,0.4,0.3,0.5,0.4s0.2,0.4,0.2,0.6c0,0.2-0.1,0.4-0.2,0.6c-0.2,0.2-0.4,0.3-0.6,0.3c-0.1,0-0.3,0-0.4-0.1s-0.3-0.2-0.5-0.3
			c-0.5-0.3-0.9-0.6-1.3-0.7c-0.4-0.2-0.8-0.3-1.3-0.3v6.8l0.5,0.1c0.4,0.1,0.8,0.1,1.2,0.2c0.3,0.1,0.6,0.2,0.9,0.3
			c0.3,0.1,0.5,0.2,0.7,0.4c0.2,0.1,0.4,0.3,0.6,0.4c0.5,0.4,0.9,1,1.2,1.6s0.4,1.3,0.4,2.1c0,0.7-0.1,1.4-0.4,2
			c-0.2,0.6-0.6,1.1-1.1,1.6s-1,0.8-1.7,1.1s-1.4,0.5-2.2,0.6v0.7c0,0.2,0,0.4,0,0.5c0,0.1-0.1,0.2-0.1,0.4
			c-0.1,0.1-0.2,0.2-0.3,0.3c-0.1,0.1-0.3,0.1-0.5,0.1s-0.3,0-0.5-0.1c-0.1-0.1-0.2-0.2-0.3-0.3c-0.1-0.1-0.1-0.2-0.1-0.4
			s0-0.3,0-0.5v-0.6c-0.5,0-0.9-0.1-1.3-0.1c-0.4-0.1-0.8-0.2-1.1-0.3s-0.7-0.3-1.1-0.5c-0.3-0.2-0.7-0.4-1.1-0.6
			c-0.3-0.2-0.5-0.3-0.6-0.5c-0.2-0.2-0.2-0.4-0.2-0.6c0-0.1,0-0.2,0.1-0.4c0-0.1,0.1-0.2,0.2-0.3c0.2-0.2,0.4-0.2,0.6-0.2
			c0.1,0,0.3,0,0.4,0.1c0.2,0.1,0.3,0.2,0.5,0.3c0.3,0.2,0.6,0.4,0.9,0.6c0.3,0.2,0.6,0.3,0.9,0.4s0.6,0.2,0.9,0.3s0.7,0.1,1,0.1
			v-6.9l-0.4-0.1c-0.4-0.1-0.7-0.1-1-0.2c-0.3-0.1-0.6-0.2-0.9-0.3c-0.3-0.1-0.5-0.2-0.8-0.4c-0.2-0.2-0.5-0.3-0.7-0.5
			c-0.5-0.4-0.9-0.9-1.1-1.5c-0.2-0.6-0.3-1.2-0.3-2c0-0.7,0.1-1.4,0.4-2c0.2-0.6,0.6-1.1,1-1.6c0.4-0.5,1-0.8,1.6-1.1
			c0.6-0.3,1.3-0.4,2.1-0.5v-0.6c0-0.2,0-0.4,0-0.5c0-0.1,0.1-0.2,0.1-0.4c0.1-0.1,0.2-0.2,0.3-0.3c0.1-0.1,0.3-0.1,0.5-0.1
			s0.3,0,0.5,0.1c0.1,0.1,0.2,0.2,0.3,0.3c0.1,0.1,0.1,0.2,0.1,0.4c0,0.1,0,0.3,0,0.5V246z M368.9,253.2c0.2,0.1,0.3,0.3,0.5,0.4
			c0.2,0.1,0.3,0.2,0.5,0.3c0.2,0.1,0.4,0.1,0.6,0.2s0.5,0.1,0.8,0.2v-6.6c-0.5,0.1-1,0.2-1.4,0.4c-0.4,0.2-0.8,0.4-1,0.7
			s-0.5,0.6-0.6,1c-0.1,0.4-0.2,0.8-0.2,1.3s0.1,0.9,0.2,1.2C368.4,252.7,368.6,253,368.9,253.2z M373,256.3v6.6
			c1.1-0.1,1.9-0.5,2.5-1.1c0.6-0.6,0.9-1.3,0.9-2.3c0-0.5-0.1-0.9-0.2-1.3c-0.1-0.4-0.4-0.7-0.7-1c-0.1-0.1-0.3-0.2-0.4-0.3
			c-0.1-0.1-0.3-0.2-0.5-0.2c-0.2-0.1-0.4-0.1-0.6-0.2c-0.2-0.1-0.5-0.1-0.9-0.2L373,256.3z"/>
		<path fill="#39D1B4" d="M382.8,264.8c-0.2-0.4-0.3-0.8-0.4-1.2c-0.1-0.4-0.1-0.9-0.1-1.4v-13.6c0-0.5,0-0.9,0.1-1.4
			c0.1-0.4,0.2-0.8,0.4-1.2c0.2-0.3,0.3-0.6,0.5-0.9c0.2-0.3,0.4-0.5,0.7-0.8c0.1-0.1,0.3-0.3,0.4-0.4c0.1-0.1,0.3-0.1,0.5-0.1
			c0.3,0,0.5,0.1,0.7,0.3c0.2,0.2,0.2,0.4,0.2,0.6c0,0.2-0.1,0.4-0.2,0.5c-0.1,0.1-0.2,0.3-0.4,0.4s-0.3,0.3-0.5,0.5
			c-0.2,0.2-0.3,0.4-0.4,0.6c-0.1,0.3-0.2,0.6-0.3,0.9c-0.1,0.3-0.1,0.7-0.1,1.1V262c0,0.4,0,0.8,0.1,1.1c0.1,0.3,0.1,0.6,0.3,0.9
			c0.1,0.2,0.2,0.4,0.4,0.6c0.2,0.2,0.3,0.4,0.5,0.5c0.1,0.1,0.3,0.3,0.4,0.4c0.1,0.1,0.2,0.3,0.2,0.5c0,0.2-0.1,0.4-0.2,0.6
			c-0.2,0.2-0.4,0.3-0.7,0.3c-0.2,0-0.3,0-0.5-0.1s-0.3-0.2-0.4-0.4c-0.3-0.3-0.6-0.6-0.7-0.8C383.2,265.4,383,265.1,382.8,264.8z"
			/>
		<path fill="#39D1B4" d="M391.5,250c0,0.2,0,0.4,0,0.5s-0.1,0.2-0.1,0.4c-0.1,0.1-0.2,0.2-0.3,0.3s-0.3,0.1-0.5,0.1s-0.3,0-0.5-0.1
			s-0.2-0.2-0.3-0.3c-0.1-0.1-0.1-0.2-0.1-0.4c0-0.1,0-0.3,0-0.5v-2.8c0-0.2,0-0.4,0-0.5c0-0.1,0.1-0.2,0.1-0.4
			c0.1-0.1,0.2-0.2,0.3-0.3s0.3-0.1,0.5-0.1s0.3,0,0.5,0.1s0.2,0.2,0.3,0.3c0.1,0.1,0.1,0.2,0.1,0.4c0,0.1,0,0.3,0,0.5V250z"/>
		<path fill="#39D1B4" d="M395.3,263.5c-0.2-0.1-0.3-0.3-0.4-0.4c-0.1-0.1-0.2-0.3-0.2-0.5c0-0.1,0-0.2,0.1-0.3s0.1-0.2,0.2-0.3
			c0.1-0.1,0.3-0.2,0.5-0.2c0.2,0,0.5,0.1,0.9,0.4c0.5,0.3,1,0.6,1.5,0.7c0.5,0.2,1.2,0.2,1.9,0.2c1.1,0,1.9-0.2,2.5-0.6
			c0.6-0.4,0.9-0.9,0.9-1.7c0-0.6-0.2-1-0.5-1.3c-0.3-0.3-0.9-0.5-1.6-0.6l-2.1-0.2c-1.2-0.1-2.2-0.4-2.8-1c-0.7-0.6-1-1.4-1-2.4
			c0-0.6,0.1-1.1,0.4-1.6c0.2-0.5,0.6-0.9,1-1.2s0.9-0.6,1.5-0.7c0.6-0.2,1.2-0.3,1.9-0.3c0.7,0,1.4,0.1,2,0.2
			c0.6,0.1,1.1,0.3,1.6,0.6c0.2,0.1,0.3,0.2,0.4,0.2c0.1,0.1,0.2,0.1,0.2,0.2c0.1,0.1,0.1,0.2,0.1,0.2s0,0.2,0,0.2
			c0,0.1,0,0.2-0.1,0.3c0,0.1-0.1,0.2-0.2,0.2c-0.2,0.2-0.4,0.3-0.6,0.3c-0.1,0-0.2,0-0.3-0.1c-0.1,0-0.2-0.1-0.4-0.2
			c-0.4-0.2-0.9-0.4-1.3-0.5s-1-0.2-1.5-0.2c-0.9,0-1.6,0.2-2.1,0.5s-0.7,0.9-0.7,1.6c0,0.6,0.2,1,0.5,1.3c0.4,0.3,0.9,0.5,1.7,0.5
			l2.1,0.2c0.6,0.1,1.1,0.1,1.5,0.3c0.5,0.1,0.9,0.3,1.2,0.6c0.3,0.3,0.6,0.6,0.8,1s0.3,0.9,0.3,1.5c0,0.6-0.1,1.2-0.4,1.7
			c-0.3,0.5-0.6,0.9-1.1,1.2c-0.5,0.3-1,0.6-1.7,0.8c-0.6,0.2-1.3,0.3-2.1,0.3c-1,0-1.8-0.1-2.5-0.3
			C396.5,264.3,395.9,264,395.3,263.5z"/>
		<path fill="#39D1B4" d="M409.8,258.7c0,1.4,0.3,2.5,1,3.3c0.6,0.8,1.6,1.2,2.8,1.2c0.5,0,1-0.1,1.4-0.2c0.5-0.1,0.9-0.4,1.3-0.7
			c0.2-0.2,0.4-0.3,0.5-0.4c0.1-0.1,0.3-0.1,0.4-0.1c0.1,0,0.2,0,0.3,0.1s0.2,0.1,0.3,0.2c0.1,0.1,0.1,0.2,0.2,0.3
			c0,0.1,0.1,0.2,0.1,0.3c0,0.1,0,0.3-0.1,0.4c-0.1,0.1-0.2,0.3-0.3,0.4c-0.1,0.1-0.3,0.2-0.4,0.4c-0.2,0.1-0.3,0.2-0.4,0.3
			c-0.4,0.2-0.9,0.4-1.4,0.5c-0.5,0.1-1.1,0.2-1.8,0.2c-0.8,0-1.6-0.1-2.3-0.4s-1.3-0.7-1.8-1.2c-0.5-0.5-0.9-1.2-1.1-2
			c-0.3-0.8-0.4-1.8-0.4-2.9c0-1.1,0.1-2,0.4-2.8c0.2-0.8,0.6-1.5,1.1-2.1c0.5-0.6,1-1,1.7-1.3c0.7-0.3,1.4-0.4,2.2-0.4
			c0.8,0,1.5,0.1,2.2,0.4s1.2,0.7,1.6,1.2c0.5,0.5,0.8,1.1,1,1.9c0.2,0.7,0.4,1.5,0.4,2.4c0,0.1,0,0.3,0,0.4s-0.1,0.3-0.2,0.4
			c-0.1,0.1-0.3,0.2-0.4,0.2c-0.1,0-0.3,0-0.4,0H409.8z M416.6,257.3c0-0.2,0-0.4,0-0.6c0-0.2,0-0.4-0.1-0.5c0-0.2-0.1-0.3-0.1-0.5
			c0-0.2-0.1-0.3-0.2-0.5c-0.2-0.6-0.6-1.1-1.2-1.4c-0.5-0.3-1.1-0.5-1.8-0.5s-1.3,0.2-1.8,0.5c-0.5,0.3-0.9,0.8-1.1,1.4
			c-0.1,0.2-0.1,0.3-0.2,0.5c0,0.2-0.1,0.3-0.1,0.5c0,0.2-0.1,0.3-0.1,0.5s0,0.4,0,0.6H416.6z"/>
		<path fill="#39D1B4" d="M424.3,261.1c0,0.6,0.1,1,0.4,1.4c0.3,0.3,0.7,0.5,1.3,0.5c0.2,0,0.4,0,0.5,0c0.1,0,0.2,0.1,0.3,0.1
			c0.2,0.1,0.3,0.4,0.3,0.7s-0.1,0.5-0.3,0.7c-0.1,0.1-0.2,0.1-0.3,0.1c-0.1,0-0.3,0-0.5,0h-0.3c-0.5,0-1-0.1-1.4-0.3
			c-0.4-0.2-0.7-0.4-1-0.7c-0.3-0.3-0.5-0.7-0.6-1.1s-0.2-0.9-0.2-1.3v-13.9c0-0.2,0-0.4,0-0.5s0.1-0.2,0.1-0.4s0.2-0.2,0.3-0.3
			c0.1-0.1,0.3-0.1,0.5-0.1c0.2,0,0.3,0,0.5,0.1c0.1,0.1,0.2,0.2,0.3,0.3c0.1,0.1,0.1,0.2,0.1,0.4s0,0.3,0,0.5V261.1z"/>
		<path fill="#39D1B4" d="M431,258.7c0,1.4,0.3,2.5,1,3.3c0.6,0.8,1.6,1.2,2.8,1.2c0.5,0,1-0.1,1.4-0.2c0.5-0.1,0.9-0.4,1.3-0.7
			c0.2-0.2,0.4-0.3,0.5-0.4c0.1-0.1,0.3-0.1,0.4-0.1c0.1,0,0.2,0,0.3,0.1s0.2,0.1,0.3,0.2c0.1,0.1,0.1,0.2,0.2,0.3
			c0,0.1,0.1,0.2,0.1,0.3c0,0.1,0,0.3-0.1,0.4c-0.1,0.1-0.2,0.3-0.3,0.4c-0.1,0.1-0.3,0.2-0.4,0.4c-0.2,0.1-0.3,0.2-0.4,0.3
			c-0.4,0.2-0.9,0.4-1.4,0.5c-0.5,0.1-1.1,0.2-1.8,0.2c-0.8,0-1.6-0.1-2.3-0.4s-1.3-0.7-1.8-1.2c-0.5-0.5-0.9-1.2-1.1-2
			c-0.3-0.8-0.4-1.8-0.4-2.9c0-1.1,0.1-2,0.4-2.8c0.2-0.8,0.6-1.5,1.1-2.1c0.5-0.6,1-1,1.7-1.3c0.7-0.3,1.4-0.4,2.2-0.4
			c0.8,0,1.5,0.1,2.2,0.4s1.2,0.7,1.6,1.2c0.5,0.5,0.8,1.1,1,1.9c0.2,0.7,0.4,1.5,0.4,2.4c0,0.1,0,0.3,0,0.4s-0.1,0.3-0.2,0.4
			c-0.1,0.1-0.3,0.2-0.4,0.2c-0.1,0-0.3,0-0.4,0H431z M437.8,257.3c0-0.2,0-0.4,0-0.6c0-0.2,0-0.4-0.1-0.5c0-0.2-0.1-0.3-0.1-0.5
			c0-0.2-0.1-0.3-0.2-0.5c-0.2-0.6-0.6-1.1-1.2-1.4c-0.5-0.3-1.1-0.5-1.8-0.5s-1.3,0.2-1.8,0.5c-0.5,0.3-0.9,0.8-1.1,1.4
			c-0.1,0.2-0.1,0.3-0.2,0.5c0,0.2-0.1,0.3-0.1,0.5c0,0.2-0.1,0.3-0.1,0.5s0,0.4,0,0.6H437.8z"/>
		<path fill="#39D1B4" d="M442.9,258.2c0-1.1,0.1-2,0.4-2.9c0.3-0.8,0.7-1.5,1.2-2c0.5-0.5,1.1-1,1.8-1.2c0.7-0.3,1.4-0.4,2.3-0.4
			c0.6,0,1.2,0.1,1.7,0.3c0.5,0.2,1,0.4,1.4,0.8c0.3,0.2,0.5,0.4,0.7,0.6c0.2,0.2,0.2,0.4,0.2,0.6c0,0.2-0.1,0.4-0.3,0.6
			c-0.2,0.2-0.4,0.2-0.6,0.2c-0.1,0-0.3,0-0.4-0.1c-0.1-0.1-0.3-0.2-0.5-0.4c-0.2-0.2-0.4-0.3-0.6-0.4c-0.2-0.1-0.4-0.2-0.5-0.3
			c-0.2-0.1-0.4-0.1-0.5-0.2c-0.2,0-0.4,0-0.6,0c-0.6,0-1.2,0.1-1.7,0.4c-0.5,0.2-0.9,0.6-1.2,1.1c-0.1,0.2-0.3,0.4-0.4,0.7
			c-0.1,0.2-0.2,0.5-0.3,0.8s-0.1,0.6-0.1,0.9c0,0.3,0,0.7,0,1.1s0,0.8,0,1.1c0,0.3,0.1,0.6,0.1,0.9s0.2,0.5,0.3,0.8
			s0.2,0.5,0.4,0.7c0.3,0.5,0.8,0.8,1.2,1.1c0.5,0.2,1.1,0.4,1.7,0.4c0.2,0,0.4,0,0.6,0c0.2,0,0.4-0.1,0.6-0.1
			c0.2-0.1,0.4-0.2,0.5-0.3c0.2-0.1,0.4-0.3,0.6-0.4c0.2-0.1,0.3-0.3,0.5-0.4c0.2-0.1,0.3-0.1,0.4-0.1c0.2,0,0.4,0.1,0.6,0.2
			c0.2,0.2,0.3,0.4,0.3,0.6c0,0.2-0.1,0.4-0.2,0.6c-0.2,0.2-0.4,0.4-0.7,0.6c-0.4,0.3-0.9,0.6-1.4,0.8s-1.1,0.3-1.7,0.3
			c-0.8,0-1.6-0.1-2.3-0.4c-0.7-0.3-1.3-0.7-1.8-1.2c-0.5-0.5-0.9-1.2-1.2-2C443,260.3,442.9,259.3,442.9,258.2z"/>
		<path fill="#39D1B4" d="M458.6,261.1c0,0.6,0.1,1,0.4,1.4s0.7,0.5,1.3,0.5c0.2,0,0.4,0,0.5,0c0.1,0,0.2,0.1,0.3,0.1
			c0.2,0.1,0.4,0.4,0.4,0.7s-0.1,0.5-0.4,0.7c-0.1,0.1-0.2,0.1-0.3,0.1c-0.1,0-0.3,0-0.5,0h-0.3c-0.5,0-1-0.1-1.4-0.3
			s-0.7-0.4-1-0.7c-0.3-0.3-0.5-0.7-0.6-1.1s-0.2-0.9-0.2-1.3v-7.9h-0.9c-0.2,0-0.3,0-0.4,0c-0.1,0-0.2-0.1-0.3-0.1
			c-0.2-0.1-0.3-0.3-0.3-0.6s0.1-0.5,0.3-0.6c0.1-0.1,0.2-0.1,0.3-0.1c0.1,0,0.2,0,0.4,0h0.9v-2.7c0-0.2,0-0.4,0-0.5
			s0.1-0.2,0.1-0.4c0.1-0.1,0.2-0.2,0.3-0.3c0.1-0.1,0.3-0.1,0.5-0.1c0.2,0,0.3,0,0.5,0.1c0.1,0.1,0.2,0.2,0.3,0.3
			c0.1,0.1,0.1,0.2,0.1,0.4s0,0.3,0,0.5v2.7h1.9c0.2,0,0.3,0,0.4,0c0.1,0,0.2,0.1,0.3,0.1c0.2,0.1,0.3,0.3,0.3,0.6s-0.1,0.5-0.3,0.6
			c-0.1,0.1-0.2,0.1-0.3,0.1c-0.1,0-0.2,0-0.4,0h-1.9V261.1z"/>
		<path fill="#39D1B4" d="M469.5,251.7c0.8,0,1.5,0.1,2.1,0.4c0.6,0.3,1.1,0.6,1.6,1.1c0.3,0.3,0.6,0.7,0.8,1.1
			c0.2,0.4,0.4,0.8,0.5,1.2c0.1,0.4,0.2,0.9,0.2,1.3s0.1,0.9,0.1,1.4s0,1-0.1,1.4s-0.1,0.9-0.2,1.3c-0.1,0.4-0.3,0.8-0.5,1.2
			c-0.2,0.4-0.5,0.8-0.8,1.1c-0.4,0.4-1,0.8-1.6,1.1c-0.6,0.3-1.3,0.4-2.1,0.4c-0.8,0-1.5-0.1-2.1-0.4c-0.6-0.3-1.1-0.6-1.6-1.1
			c-0.3-0.3-0.6-0.7-0.8-1.1c-0.2-0.4-0.4-0.8-0.5-1.2c-0.1-0.4-0.2-0.9-0.2-1.3s-0.1-0.9-0.1-1.4s0-1,0.1-1.4s0.1-0.9,0.2-1.3
			c0.1-0.4,0.3-0.8,0.5-1.2c0.2-0.4,0.5-0.8,0.8-1.1c0.4-0.4,1-0.8,1.6-1.1C468,251.8,468.7,251.7,469.5,251.7z M469.5,263.1
			c0.9,0,1.7-0.3,2.3-0.9c0.2-0.2,0.4-0.5,0.5-0.8c0.1-0.3,0.2-0.6,0.3-1c0.1-0.3,0.1-0.7,0.1-1.1c0-0.4,0-0.7,0-1.1
			c0-0.4,0-0.7,0-1.1s-0.1-0.7-0.1-1.1c-0.1-0.3-0.2-0.7-0.3-1c-0.1-0.3-0.3-0.6-0.5-0.8c-0.3-0.3-0.7-0.5-1-0.7s-0.8-0.2-1.3-0.2
			s-0.9,0.1-1.3,0.2c-0.4,0.2-0.7,0.4-1,0.7c-0.2,0.2-0.4,0.5-0.5,0.8c-0.1,0.3-0.2,0.6-0.3,1c-0.1,0.3-0.1,0.7-0.1,1.1s0,0.7,0,1.1
			c0,0.4,0,0.7,0,1.1c0,0.4,0.1,0.7,0.1,1.1c0.1,0.3,0.2,0.7,0.3,1c0.1,0.3,0.3,0.6,0.5,0.8C467.8,262.8,468.5,263.1,469.5,263.1z"
			/>
		<path fill="#39D1B4" d="M480.6,253.4c0.2-0.3,0.4-0.5,0.6-0.7s0.5-0.4,0.8-0.5c0.3-0.1,0.6-0.3,1-0.3c0.3-0.1,0.7-0.1,1-0.1
			c0.5,0,0.9,0,1.2,0.1c0.4,0.1,0.7,0.3,1.1,0.5c0.2,0.1,0.4,0.3,0.5,0.4s0.2,0.3,0.2,0.5c0,0.1,0,0.2-0.1,0.4
			c-0.1,0.1-0.1,0.2-0.2,0.3c-0.2,0.2-0.4,0.3-0.7,0.3c-0.1,0-0.2,0-0.4-0.1c-0.1-0.1-0.3-0.1-0.5-0.3c-0.2-0.1-0.5-0.3-0.8-0.3
			c-0.3-0.1-0.5-0.1-0.8-0.1c-0.5,0-0.9,0.1-1.3,0.3s-0.7,0.4-1,0.7c-0.3,0.3-0.5,0.7-0.6,1.1c-0.1,0.4-0.2,0.9-0.2,1.4v6.6
			c0,0.2,0,0.4,0,0.5s-0.1,0.2-0.1,0.4c-0.1,0.1-0.2,0.2-0.3,0.3c-0.1,0.1-0.3,0.1-0.5,0.1c-0.2,0-0.3,0-0.5-0.1
			c-0.1-0.1-0.2-0.2-0.3-0.3c-0.1-0.1-0.1-0.2-0.1-0.4c0-0.1,0-0.3,0-0.5V253c0-0.2,0-0.4,0-0.5c0-0.1,0.1-0.2,0.1-0.4
			c0.1-0.1,0.2-0.2,0.3-0.3c0.1-0.1,0.3-0.1,0.5-0.1c0.2,0,0.3,0,0.5,0.1c0.1,0.1,0.2,0.2,0.3,0.3c0.1,0.1,0.1,0.2,0.1,0.4
			s0,0.3,0,0.5V253.4z"/>
		<path fill="#39D1B4" d="M491.2,250c0,0.2,0,0.4,0,0.5s-0.1,0.2-0.1,0.4c-0.1,0.1-0.2,0.2-0.3,0.3s-0.3,0.1-0.5,0.1s-0.3,0-0.5-0.1
			s-0.2-0.2-0.3-0.3c-0.1-0.1-0.1-0.2-0.1-0.4c0-0.1,0-0.3,0-0.5v-2.8c0-0.2,0-0.4,0-0.5c0-0.1,0.1-0.2,0.1-0.4
			c0.1-0.1,0.2-0.2,0.3-0.3s0.3-0.1,0.5-0.1s0.3,0,0.5,0.1s0.2,0.2,0.3,0.3c0.1,0.1,0.1,0.2,0.1,0.4c0,0.1,0,0.3,0,0.5V250z"/>
		<path fill="#39D1B4" d="M498,264.8c-0.1,0.2-0.2,0.3-0.3,0.5c-0.1,0.1-0.2,0.3-0.3,0.4c-0.1,0.1-0.2,0.3-0.3,0.4
			c-0.1,0.1-0.3,0.3-0.4,0.4c-0.1,0.1-0.3,0.3-0.4,0.4c-0.1,0.1-0.3,0.1-0.5,0.1c-0.3,0-0.5-0.1-0.7-0.3c-0.2-0.2-0.2-0.4-0.2-0.6
			c0-0.2,0.1-0.4,0.2-0.5c0.1-0.1,0.2-0.3,0.4-0.4c0.1-0.1,0.3-0.3,0.5-0.5c0.2-0.2,0.3-0.4,0.4-0.6c0.1-0.3,0.2-0.6,0.3-0.9
			c0.1-0.3,0.1-0.7,0.1-1.1v-13.3c0-0.4,0-0.8-0.1-1.1c-0.1-0.3-0.1-0.6-0.3-0.9c-0.1-0.2-0.2-0.4-0.4-0.6c-0.2-0.2-0.3-0.4-0.5-0.5
			s-0.3-0.3-0.4-0.4c-0.1-0.1-0.2-0.3-0.2-0.5c0-0.2,0.1-0.4,0.2-0.6c0.2-0.2,0.4-0.3,0.7-0.3c0.2,0,0.3,0.1,0.5,0.1
			c0.1,0.1,0.3,0.2,0.4,0.4c0.2,0.2,0.3,0.3,0.4,0.4s0.2,0.3,0.3,0.4s0.2,0.3,0.3,0.4c0.1,0.1,0.2,0.3,0.3,0.5
			c0.2,0.4,0.3,0.8,0.4,1.2c0.1,0.4,0.1,0.9,0.1,1.4v13.6c0,0.5,0,0.9-0.1,1.4C498.3,263.9,498.2,264.3,498,264.8z"/>
		<path fill="#F15B5C" d="M503,263.2c0-0.2,0-0.4,0.1-0.6c0.1-0.2,0.2-0.3,0.3-0.5c0.1-0.1,0.3-0.2,0.5-0.3s0.4-0.1,0.6-0.1
			s0.4,0,0.6,0.1s0.3,0.2,0.5,0.3c0.1,0.1,0.2,0.3,0.3,0.5c0.1,0.2,0.1,0.4,0.1,0.6s0,0.4-0.1,0.6c-0.1,0.2-0.2,0.3-0.3,0.5
			c-0.1,0.1-0.3,0.2-0.5,0.3c-0.2,0.1-0.4,0.1-0.6,0.1s-0.4,0-0.6-0.1c-0.2-0.1-0.3-0.2-0.5-0.3c-0.1-0.1-0.2-0.3-0.3-0.5
			C503,263.6,503,263.4,503,263.2z"/>
		<path fill="#F15B5C" d="M512.6,261.1c0,0.6,0.1,1,0.4,1.4s0.7,0.5,1.3,0.5c0.2,0,0.4,0,0.5,0c0.1,0,0.2,0.1,0.3,0.1
			c0.2,0.1,0.4,0.4,0.4,0.7s-0.1,0.5-0.4,0.7c-0.1,0.1-0.2,0.1-0.3,0.1c-0.1,0-0.3,0-0.5,0H514c-0.5,0-1-0.1-1.4-0.3s-0.7-0.4-1-0.7
			c-0.3-0.3-0.5-0.7-0.6-1.1s-0.2-0.9-0.2-1.3v-7.9h-0.9c-0.2,0-0.3,0-0.4,0c-0.1,0-0.2-0.1-0.3-0.1c-0.2-0.1-0.3-0.3-0.3-0.6
			s0.1-0.5,0.3-0.6c0.1-0.1,0.2-0.1,0.3-0.1c0.1,0,0.2,0,0.4,0h0.9v-2.7c0-0.2,0-0.4,0-0.5s0.1-0.2,0.1-0.4c0.1-0.1,0.2-0.2,0.3-0.3
			c0.1-0.1,0.3-0.1,0.5-0.1c0.2,0,0.3,0,0.5,0.1c0.1,0.1,0.2,0.2,0.3,0.3c0.1,0.1,0.1,0.2,0.1,0.4s0,0.3,0,0.5v2.7h1.9
			c0.2,0,0.3,0,0.4,0c0.1,0,0.2,0.1,0.3,0.1c0.2,0.1,0.3,0.3,0.3,0.6s-0.1,0.5-0.3,0.6c-0.1,0.1-0.2,0.1-0.3,0.1c-0.1,0-0.2,0-0.4,0
			h-1.9V261.1z"/>
		<path fill="#F15B5C" d="M523.5,251.7c0.8,0,1.5,0.1,2.1,0.4c0.6,0.3,1.1,0.6,1.6,1.1c0.3,0.3,0.6,0.7,0.8,1.1
			c0.2,0.4,0.4,0.8,0.5,1.2c0.1,0.4,0.2,0.9,0.2,1.3s0.1,0.9,0.1,1.4s0,1-0.1,1.4s-0.1,0.9-0.2,1.3c-0.1,0.4-0.3,0.8-0.5,1.2
			c-0.2,0.4-0.5,0.8-0.8,1.1c-0.4,0.4-1,0.8-1.6,1.1c-0.6,0.3-1.3,0.4-2.1,0.4c-0.8,0-1.5-0.1-2.1-0.4c-0.6-0.3-1.1-0.6-1.6-1.1
			c-0.3-0.3-0.6-0.7-0.8-1.1c-0.2-0.4-0.4-0.8-0.5-1.2c-0.1-0.4-0.2-0.9-0.2-1.3s-0.1-0.9-0.1-1.4s0-1,0.1-1.4s0.1-0.9,0.2-1.3
			c0.1-0.4,0.3-0.8,0.5-1.2c0.2-0.4,0.5-0.8,0.8-1.1c0.4-0.4,1-0.8,1.6-1.1C522,251.8,522.7,251.7,523.5,251.7z M523.5,263.1
			c0.9,0,1.7-0.3,2.3-0.9c0.2-0.2,0.4-0.5,0.5-0.8c0.1-0.3,0.2-0.6,0.3-1c0.1-0.3,0.1-0.7,0.1-1.1c0-0.4,0-0.7,0-1.1
			c0-0.4,0-0.7,0-1.1s-0.1-0.7-0.1-1.1c-0.1-0.3-0.2-0.7-0.3-1c-0.1-0.3-0.3-0.6-0.5-0.8c-0.3-0.3-0.7-0.5-1-0.7s-0.8-0.2-1.3-0.2
			s-0.9,0.1-1.3,0.2c-0.4,0.2-0.7,0.4-1,0.7c-0.2,0.2-0.4,0.5-0.5,0.8c-0.1,0.3-0.2,0.6-0.3,1c-0.1,0.3-0.1,0.7-0.1,1.1s0,0.7,0,1.1
			c0,0.4,0,0.7,0,1.1c0,0.4,0.1,0.7,0.1,1.1c0.1,0.3,0.2,0.7,0.3,1c0.1,0.3,0.3,0.6,0.5,0.8C521.8,262.8,522.6,263.1,523.5,263.1z"
			/>
		<path fill="#F15B5C" d="M536.8,268.8c0.6,0,1.1-0.1,1.6-0.3s0.8-0.5,1.1-0.8c0.3-0.4,0.5-0.8,0.6-1.2s0.2-1,0.2-1.5v-2
			c-0.3,0.3-0.5,0.6-0.8,0.8c-0.3,0.2-0.6,0.4-0.9,0.5c-0.3,0.1-0.6,0.2-0.9,0.3c-0.3,0.1-0.7,0.1-1,0.1c-0.7,0-1.3-0.1-1.8-0.3
			c-0.5-0.2-1-0.5-1.3-0.8c-0.3-0.3-0.6-0.7-0.8-1.1c-0.2-0.4-0.4-0.8-0.5-1.3c-0.1-0.5-0.2-0.9-0.2-1.4c0-0.5-0.1-1-0.1-1.5
			s0-1,0.1-1.5c0-0.5,0.1-1,0.2-1.4c0.1-0.5,0.3-0.9,0.5-1.3c0.2-0.4,0.5-0.8,0.8-1.1c0.3-0.3,0.8-0.6,1.3-0.8s1.2-0.3,1.8-0.3
			c0.3,0,0.7,0,1,0.1s0.6,0.1,0.9,0.3s0.6,0.3,0.9,0.5s0.5,0.5,0.8,0.8V253c0-0.2,0-0.4,0-0.5c0-0.1,0.1-0.2,0.1-0.4
			c0.1-0.1,0.2-0.2,0.3-0.3c0.1-0.1,0.3-0.1,0.5-0.1c0.2,0,0.3,0,0.5,0.1c0.1,0.1,0.2,0.2,0.3,0.3c0.1,0.1,0.1,0.2,0.1,0.4
			c0,0.1,0,0.3,0,0.5v12c0,0.8-0.1,1.5-0.4,2.2c-0.2,0.7-0.6,1.2-1.1,1.7c-0.5,0.5-1,0.9-1.7,1.1c-0.7,0.3-1.4,0.4-2.3,0.4
			c-0.6,0-1.1,0-1.6-0.1c-0.4-0.1-0.9-0.3-1.3-0.5c-0.1-0.1-0.3-0.1-0.4-0.2c-0.2-0.1-0.3-0.2-0.4-0.3s-0.3-0.3-0.4-0.4
			s-0.1-0.3-0.1-0.4c0-0.1,0-0.2,0.1-0.4c0-0.1,0.1-0.2,0.2-0.3c0.1-0.1,0.2-0.1,0.3-0.2s0.2-0.1,0.3-0.1c0.1,0,0.3,0,0.4,0.1
			c0.1,0.1,0.3,0.2,0.6,0.4c0.4,0.3,0.7,0.5,1.1,0.6C535.9,268.8,536.3,268.8,536.8,268.8z M540.3,258.1c0-0.6,0-1.2-0.1-1.7
			c-0.1-0.6-0.2-1.1-0.4-1.5c-0.2-0.4-0.5-0.8-1-1.1c-0.4-0.3-1-0.4-1.7-0.4s-1.2,0.1-1.7,0.4c-0.4,0.3-0.7,0.6-1,1.1
			c-0.2,0.5-0.4,1-0.4,1.5c-0.1,0.6-0.1,1.2-0.1,1.7c0,0.6,0,1.2,0.1,1.7c0.1,0.6,0.2,1.1,0.4,1.5c0.2,0.4,0.5,0.8,1,1.1
			c0.4,0.3,1,0.4,1.7,0.4s1.3-0.1,1.7-0.4c0.4-0.3,0.7-0.6,1-1.1c0.2-0.4,0.4-1,0.4-1.5C540.3,259.3,540.3,258.7,540.3,258.1z"/>
		<path fill="#F15B5C" d="M551,268.8c0.6,0,1.1-0.1,1.6-0.3s0.8-0.5,1.1-0.8c0.3-0.4,0.5-0.8,0.6-1.2s0.2-1,0.2-1.5v-2
			c-0.3,0.3-0.5,0.6-0.8,0.8c-0.3,0.2-0.6,0.4-0.9,0.5c-0.3,0.1-0.6,0.2-0.9,0.3c-0.3,0.1-0.7,0.1-1,0.1c-0.7,0-1.3-0.1-1.8-0.3
			c-0.5-0.2-1-0.5-1.3-0.8c-0.3-0.3-0.6-0.7-0.8-1.1c-0.2-0.4-0.4-0.8-0.5-1.3c-0.1-0.5-0.2-0.9-0.2-1.4c0-0.5-0.1-1-0.1-1.5
			s0-1,0.1-1.5c0-0.5,0.1-1,0.2-1.4c0.1-0.5,0.3-0.9,0.5-1.3c0.2-0.4,0.5-0.8,0.8-1.1c0.3-0.3,0.8-0.6,1.3-0.8s1.2-0.3,1.8-0.3
			c0.3,0,0.7,0,1,0.1s0.6,0.1,0.9,0.3s0.6,0.3,0.9,0.5s0.5,0.5,0.8,0.8V253c0-0.2,0-0.4,0-0.5c0-0.1,0.1-0.2,0.1-0.4
			c0.1-0.1,0.2-0.2,0.3-0.3c0.1-0.1,0.3-0.1,0.5-0.1c0.2,0,0.3,0,0.5,0.1c0.1,0.1,0.2,0.2,0.3,0.3c0.1,0.1,0.1,0.2,0.1,0.4
			c0,0.1,0,0.3,0,0.5v12c0,0.8-0.1,1.5-0.4,2.2c-0.2,0.7-0.6,1.2-1.1,1.7c-0.5,0.5-1,0.9-1.7,1.1c-0.7,0.3-1.4,0.4-2.3,0.4
			c-0.6,0-1.1,0-1.6-0.1c-0.4-0.1-0.9-0.3-1.3-0.5c-0.1-0.1-0.3-0.1-0.4-0.2c-0.2-0.1-0.3-0.2-0.4-0.3s-0.3-0.3-0.4-0.4
			s-0.1-0.3-0.1-0.4c0-0.1,0-0.2,0.1-0.4c0-0.1,0.1-0.2,0.2-0.3c0.1-0.1,0.2-0.1,0.3-0.2s0.2-0.1,0.3-0.1c0.1,0,0.3,0,0.4,0.1
			c0.1,0.1,0.3,0.2,0.6,0.4c0.4,0.3,0.7,0.5,1.1,0.6C550.1,268.8,550.6,268.8,551,268.8z M554.5,258.1c0-0.6,0-1.2-0.1-1.7
			c-0.1-0.6-0.2-1.1-0.4-1.5c-0.2-0.4-0.5-0.8-1-1.1c-0.4-0.3-1-0.4-1.7-0.4s-1.2,0.1-1.7,0.4c-0.4,0.3-0.7,0.6-1,1.1
			c-0.2,0.5-0.4,1-0.4,1.5c-0.1,0.6-0.1,1.2-0.1,1.7c0,0.6,0,1.2,0.1,1.7c0.1,0.6,0.2,1.1,0.4,1.5c0.2,0.4,0.5,0.8,1,1.1
			c0.4,0.3,1,0.4,1.7,0.4s1.3-0.1,1.7-0.4c0.4-0.3,0.7-0.6,1-1.1c0.2-0.4,0.4-1,0.4-1.5C554.5,259.3,554.5,258.7,554.5,258.1z"/>
		<path fill="#F15B5C" d="M563,261.1c0,0.6,0.1,1,0.4,1.4s0.7,0.5,1.3,0.5c0.2,0,0.4,0,0.5,0c0.1,0,0.2,0.1,0.3,0.1
			c0.2,0.1,0.4,0.4,0.4,0.7s-0.1,0.5-0.4,0.7c-0.1,0.1-0.2,0.1-0.3,0.1c-0.1,0-0.3,0-0.5,0h-0.3c-0.5,0-1-0.1-1.4-0.3
			c-0.4-0.2-0.7-0.4-1-0.7c-0.3-0.3-0.5-0.7-0.6-1.1c-0.1-0.4-0.2-0.9-0.2-1.3v-13.9c0-0.2,0-0.4,0-0.5s0.1-0.2,0.1-0.4
			c0.1-0.1,0.2-0.2,0.3-0.3c0.1-0.1,0.3-0.1,0.5-0.1s0.3,0,0.5,0.1c0.1,0.1,0.2,0.2,0.3,0.3s0.1,0.2,0.1,0.4s0,0.3,0,0.5V261.1z"/>
		<path fill="#F15B5C" d="M569.8,258.7c0,1.4,0.3,2.5,1,3.3c0.6,0.8,1.6,1.2,2.8,1.2c0.5,0,1-0.1,1.5-0.2c0.5-0.1,0.9-0.4,1.3-0.7
			c0.2-0.2,0.4-0.3,0.5-0.4c0.1-0.1,0.3-0.1,0.4-0.1c0.1,0,0.2,0,0.3,0.1c0.1,0,0.2,0.1,0.3,0.2s0.1,0.2,0.2,0.3
			c0,0.1,0.1,0.2,0.1,0.3c0,0.1,0,0.3-0.1,0.4s-0.2,0.3-0.3,0.4c-0.1,0.1-0.3,0.2-0.4,0.4c-0.2,0.1-0.3,0.2-0.4,0.3
			c-0.4,0.2-0.9,0.4-1.4,0.5s-1.1,0.2-1.8,0.2c-0.8,0-1.6-0.1-2.3-0.4c-0.7-0.3-1.3-0.7-1.8-1.2s-0.9-1.2-1.1-2
			c-0.3-0.8-0.4-1.8-0.4-2.9c0-1.1,0.1-2,0.4-2.8c0.2-0.8,0.6-1.5,1.1-2.1c0.5-0.6,1-1,1.7-1.3s1.4-0.4,2.2-0.4
			c0.8,0,1.5,0.1,2.2,0.4c0.6,0.3,1.2,0.7,1.6,1.2c0.5,0.5,0.8,1.1,1,1.9c0.2,0.7,0.4,1.5,0.4,2.4c0,0.1,0,0.3,0,0.4
			c0,0.2-0.1,0.3-0.2,0.4c-0.1,0.1-0.3,0.2-0.4,0.2c-0.1,0-0.3,0-0.4,0H569.8z M576.5,257.3c0-0.2,0-0.4,0-0.6c0-0.2,0-0.4-0.1-0.5
			c0-0.2-0.1-0.3-0.1-0.5c0-0.2-0.1-0.3-0.2-0.5c-0.2-0.6-0.6-1.1-1.2-1.4c-0.5-0.3-1.1-0.5-1.8-0.5c-0.7,0-1.3,0.2-1.8,0.5
			c-0.5,0.3-0.9,0.8-1.1,1.4c-0.1,0.2-0.1,0.3-0.2,0.5c0,0.2-0.1,0.3-0.1,0.5s-0.1,0.3-0.1,0.5s0,0.4,0,0.6H576.5z"/>
		<path fill="#F15B5C" d="M583,264.8c-0.2-0.4-0.3-0.8-0.4-1.2c-0.1-0.4-0.1-0.9-0.1-1.4v-13.6c0-0.5,0-0.9,0.1-1.4
			c0.1-0.4,0.2-0.8,0.4-1.2c0.2-0.3,0.3-0.6,0.5-0.9c0.2-0.3,0.4-0.5,0.7-0.8c0.1-0.1,0.3-0.3,0.4-0.4c0.1-0.1,0.3-0.1,0.5-0.1
			c0.3,0,0.5,0.1,0.7,0.3c0.2,0.2,0.2,0.4,0.2,0.6c0,0.2,0,0.4-0.1,0.5c-0.1,0.1-0.2,0.3-0.4,0.4s-0.3,0.3-0.5,0.5
			c-0.2,0.2-0.3,0.4-0.4,0.6c-0.1,0.3-0.2,0.6-0.3,0.9s-0.1,0.7-0.1,1.1V262c0,0.4,0,0.8,0.1,1.1s0.1,0.6,0.3,0.9
			c0.1,0.2,0.2,0.4,0.4,0.6s0.3,0.4,0.5,0.5c0.1,0.1,0.3,0.3,0.4,0.4c0.1,0.1,0.1,0.3,0.1,0.5c0,0.2-0.1,0.4-0.2,0.6
			c-0.2,0.2-0.4,0.3-0.7,0.3c-0.2,0-0.3,0-0.5-0.1c-0.1-0.1-0.3-0.2-0.4-0.4c-0.3-0.3-0.6-0.6-0.7-0.8
			C583.3,265.4,583.1,265.1,583,264.8z"/>
		<path fill="#F15B5C" d="M592.5,264.8c-0.1,0.2-0.2,0.3-0.3,0.5c-0.1,0.1-0.2,0.3-0.3,0.4c-0.1,0.1-0.2,0.3-0.3,0.4
			c-0.1,0.1-0.3,0.3-0.4,0.4c-0.1,0.1-0.3,0.3-0.4,0.4c-0.1,0.1-0.3,0.1-0.5,0.1c-0.3,0-0.5-0.1-0.7-0.3c-0.2-0.2-0.2-0.4-0.2-0.6
			c0-0.2,0-0.4,0.1-0.5c0.1-0.1,0.2-0.3,0.4-0.4c0.1-0.1,0.3-0.3,0.5-0.5s0.3-0.4,0.4-0.6c0.1-0.3,0.2-0.6,0.3-0.9s0.1-0.7,0.1-1.1
			v-13.3c0-0.4,0-0.8-0.1-1.1s-0.1-0.6-0.3-0.9c-0.1-0.2-0.2-0.4-0.4-0.6c-0.2-0.2-0.3-0.4-0.5-0.5s-0.3-0.3-0.4-0.4
			c-0.1-0.1-0.1-0.3-0.1-0.5c0-0.2,0.1-0.4,0.2-0.6c0.2-0.2,0.4-0.3,0.7-0.3c0.2,0,0.3,0.1,0.5,0.1c0.1,0.1,0.3,0.2,0.4,0.4
			c0.2,0.2,0.3,0.3,0.4,0.4c0.1,0.1,0.2,0.3,0.3,0.4s0.2,0.3,0.3,0.4s0.2,0.3,0.3,0.5c0.2,0.4,0.3,0.8,0.4,1.2
			c0.1,0.4,0.1,0.9,0.1,1.4v13.6c0,0.5,0,0.9-0.1,1.4C592.8,263.9,592.7,264.3,592.5,264.8z"/>
	</g>
	<g>
		<g>
			<path fill="#F15B5C" d="M509.1,307.7c0-0.1,0.1-0.2,0.1-0.3c0-0.1,0.1-0.1,0.1-0.2c0.1-0.1,0.1-0.1,0.2-0.2s0.2-0.1,0.3-0.1
				c0.1,0,0.2,0,0.3,0.1s0.2,0.1,0.2,0.2c0,0.1,0.1,0.1,0.1,0.2c0,0.1,0.1,0.2,0.1,0.3l4.2,11.1c0,0.1,0.1,0.2,0.1,0.3s0,0.2,0,0.2
				s0,0.2,0,0.2c0,0.1-0.1,0.1-0.1,0.2c-0.1,0.1-0.1,0.1-0.2,0.2c-0.1,0-0.2,0.1-0.3,0.1c-0.1,0-0.2,0-0.4-0.1
				c-0.1-0.1-0.1-0.1-0.2-0.2s-0.1-0.2-0.2-0.4l-0.8-2.3H507l-0.8,2.3c-0.1,0.2-0.1,0.3-0.2,0.4s-0.1,0.1-0.2,0.2
				c-0.1,0.1-0.2,0.1-0.4,0.1c-0.2,0-0.4-0.1-0.5-0.2c-0.1-0.1-0.1-0.1-0.1-0.2c0-0.1,0-0.1,0-0.2c0-0.1,0-0.2,0-0.2
				s0.1-0.2,0.1-0.3L509.1,307.7z M507.4,315.8h4.8l-2.4-6.6L507.4,315.8z"/>
			<path fill="#F15B5C" d="M516.6,313.5c0-0.7,0-1.4,0-1.9c0-0.5,0.1-1,0.2-1.4c0.1-0.4,0.2-0.7,0.4-1.1c0.2-0.3,0.4-0.6,0.7-0.9
				c0.4-0.4,0.9-0.7,1.4-0.9s1.1-0.3,1.8-0.3c0.4,0,0.8,0,1.1,0.1s0.7,0.2,0.9,0.3s0.5,0.3,0.8,0.5c0.2,0.2,0.4,0.4,0.6,0.6
				c0.1,0.2,0.2,0.3,0.4,0.5c0.1,0.2,0.2,0.3,0.3,0.5s0.1,0.3,0.2,0.5c0,0.1,0.1,0.3,0.1,0.4c0,0.2-0.1,0.4-0.2,0.5
				s-0.3,0.2-0.5,0.2c-0.2,0-0.3,0-0.4-0.1c-0.1-0.1-0.1-0.1-0.2-0.2c-0.1-0.1-0.1-0.2-0.1-0.3c-0.2-0.7-0.6-1.2-1.1-1.6
				c-0.5-0.4-1.1-0.6-1.8-0.6c-0.9,0-1.6,0.3-2.2,0.9c-0.2,0.2-0.4,0.4-0.5,0.7c-0.1,0.2-0.2,0.5-0.3,0.9c-0.1,0.3-0.1,0.7-0.1,1.2
				c0,0.5,0,1,0,1.7c0,0.6,0,1.2,0,1.7c0,0.5,0.1,0.9,0.1,1.2s0.1,0.6,0.3,0.9c0.1,0.2,0.3,0.5,0.5,0.7c0.6,0.6,1.3,0.9,2.2,0.9
				c0.7,0,1.3-0.2,1.8-0.6c0.5-0.4,0.8-0.9,1.1-1.6c0-0.1,0.1-0.2,0.1-0.3c0.1-0.1,0.1-0.2,0.2-0.2c0.1-0.1,0.2-0.1,0.4-0.1
				c0.2,0,0.3,0.1,0.5,0.2s0.2,0.3,0.2,0.5c0,0.1,0,0.2-0.1,0.4c0,0.1-0.1,0.3-0.2,0.5s-0.2,0.3-0.3,0.5c-0.1,0.2-0.2,0.3-0.4,0.5
				c-0.2,0.2-0.4,0.4-0.6,0.6c-0.2,0.2-0.5,0.4-0.8,0.5c-0.3,0.1-0.6,0.2-0.9,0.3s-0.7,0.1-1.1,0.1c-0.7,0-1.3-0.1-1.8-0.3
				s-1-0.5-1.4-0.9c-0.3-0.3-0.5-0.6-0.7-0.9c-0.2-0.3-0.3-0.7-0.4-1.1c-0.1-0.4-0.1-0.9-0.2-1.4
				C516.6,314.8,516.6,314.2,516.6,313.5z"/>
			<path fill="#F15B5C" d="M534.9,307.1c0.2,0,0.3,0,0.4,0c0.1,0,0.1,0,0.2,0.1c0.2,0.1,0.3,0.3,0.3,0.5c0,0.2-0.1,0.4-0.3,0.5
				c-0.1,0-0.1,0.1-0.2,0.1c-0.1,0-0.2,0-0.4,0H532V319c0,0.2,0,0.3,0,0.4s0,0.2-0.1,0.3c-0.1,0.1-0.1,0.2-0.2,0.2
				c-0.1,0.1-0.2,0.1-0.3,0.1c-0.1,0-0.2,0-0.3-0.1s-0.2-0.1-0.2-0.2s-0.1-0.2-0.1-0.3s0-0.2,0-0.4v-10.7h-2.9c-0.2,0-0.3,0-0.4,0
				s-0.2,0-0.2-0.1c-0.2-0.1-0.3-0.3-0.3-0.5c0-0.2,0.1-0.4,0.3-0.5c0.1,0,0.1-0.1,0.2-0.1c0.1,0,0.2,0,0.4,0H534.9z"/>
			<path fill="#F15B5C" d="M539.5,319c0,0.2,0,0.3,0,0.4c0,0.1,0,0.2-0.1,0.3c-0.1,0.1-0.1,0.2-0.2,0.2s-0.2,0.1-0.3,0.1
				c-0.1,0-0.2,0-0.3-0.1s-0.2-0.1-0.2-0.2s-0.1-0.2-0.1-0.3s0-0.2,0-0.4v-11.1c0-0.2,0-0.3,0-0.4s0-0.2,0.1-0.3s0.1-0.2,0.2-0.2
				s0.2-0.1,0.3-0.1c0.1,0,0.2,0,0.3,0.1s0.2,0.1,0.2,0.2c0.1,0.1,0.1,0.2,0.1,0.3c0,0.1,0,0.2,0,0.4V319z"/>
			<path fill="#F15B5C" d="M547.2,307c0.7,0,1.3,0.1,1.8,0.3c0.5,0.2,1,0.5,1.4,0.9c0.3,0.3,0.5,0.6,0.7,0.9s0.3,0.7,0.4,1.1
				c0.1,0.4,0.1,0.9,0.2,1.4c0,0.5,0,1.2,0,1.9c0,0.7,0,1.4,0,1.9c0,0.5-0.1,1-0.2,1.4s-0.2,0.7-0.4,1.1c-0.2,0.3-0.4,0.6-0.7,0.9
				c-0.4,0.4-0.9,0.7-1.4,0.9c-0.5,0.2-1.1,0.3-1.8,0.3s-1.3-0.1-1.8-0.3c-0.5-0.2-1-0.5-1.4-0.9c-0.3-0.3-0.5-0.6-0.7-0.9
				c-0.2-0.3-0.3-0.7-0.4-1.1c-0.1-0.4-0.1-0.9-0.2-1.4c0-0.5,0-1.2,0-1.9c0-0.7,0-1.4,0-1.9c0-0.5,0.1-1,0.2-1.4
				c0.1-0.4,0.2-0.7,0.4-1.1s0.4-0.6,0.7-0.9c0.4-0.4,0.9-0.7,1.4-0.9C545.9,307.1,546.5,307,547.2,307z M547.2,318.8
				c0.9,0,1.6-0.3,2.2-0.9c0.2-0.2,0.4-0.4,0.5-0.7c0.1-0.2,0.2-0.5,0.3-0.8s0.1-0.7,0.1-1.2c0-0.5,0-1,0-1.7c0-0.7,0-1.2,0-1.7
				c0-0.5-0.1-0.9-0.1-1.2c-0.1-0.3-0.2-0.6-0.3-0.8c-0.1-0.2-0.3-0.5-0.5-0.7c-0.6-0.6-1.3-0.9-2.2-0.9c-0.9,0-1.6,0.3-2.2,0.9
				c-0.2,0.2-0.4,0.4-0.5,0.7c-0.1,0.2-0.2,0.5-0.3,0.8c-0.1,0.3-0.1,0.7-0.1,1.2c0,0.5,0,1,0,1.7c0,0.7,0,1.2,0,1.7
				c0,0.5,0.1,0.9,0.1,1.2c0.1,0.3,0.2,0.6,0.3,0.8c0.1,0.2,0.3,0.5,0.5,0.7C545.6,318.5,546.3,318.8,547.2,318.8z"/>
			<path fill="#F15B5C" d="M564.4,319.1c0,0.3-0.1,0.5-0.2,0.7c-0.1,0.1-0.3,0.2-0.5,0.2c-0.2,0-0.3,0-0.4-0.1
				c-0.1-0.1-0.2-0.2-0.4-0.4l-6.6-9.7v9.3c0,0.2,0,0.3,0,0.4c0,0.1,0,0.2-0.1,0.3c-0.1,0.1-0.1,0.2-0.2,0.2
				c-0.1,0.1-0.2,0.1-0.3,0.1s-0.2,0-0.3-0.1c-0.1-0.1-0.2-0.1-0.2-0.2c-0.1-0.1-0.1-0.2-0.1-0.3c0-0.1,0-0.2,0-0.4v-11.1
				c0-0.3,0.1-0.5,0.2-0.7c0.1-0.1,0.3-0.2,0.5-0.2c0.2,0,0.3,0,0.4,0.1c0.1,0.1,0.2,0.2,0.4,0.4l6.6,9.7v-9.3c0-0.2,0-0.3,0-0.4
				s0-0.2,0.1-0.3s0.1-0.2,0.2-0.2s0.2-0.1,0.3-0.1c0.1,0,0.2,0,0.3,0.1s0.2,0.1,0.2,0.2c0.1,0.1,0.1,0.2,0.1,0.3s0,0.2,0,0.4V319.1
				z"/>
			<path fill="#F15B5C" d="M579.2,307.1c0.2,0,0.3,0,0.4,0c0.1,0,0.1,0,0.2,0.1c0.2,0.1,0.3,0.3,0.3,0.5c0,0.2-0.1,0.4-0.3,0.5
				c-0.1,0-0.1,0.1-0.2,0.1c-0.1,0-0.2,0-0.4,0h-2.9V319c0,0.2,0,0.3,0,0.4c0,0.1,0,0.2-0.1,0.3s-0.1,0.2-0.2,0.2
				c-0.1,0.1-0.2,0.1-0.3,0.1s-0.2,0-0.3-0.1c-0.1-0.1-0.2-0.1-0.2-0.2c-0.1-0.1-0.1-0.2-0.1-0.3c0-0.1,0-0.2,0-0.4v-10.7H572
				c-0.2,0-0.3,0-0.4,0c-0.1,0-0.2,0-0.2-0.1c-0.2-0.1-0.3-0.3-0.3-0.5c0-0.2,0.1-0.4,0.3-0.5c0.1,0,0.1-0.1,0.2-0.1
				c0.1,0,0.2,0,0.4,0H579.2z"/>
			<path fill="#F15B5C" d="M585.8,307c0.7,0,1.3,0.1,1.8,0.3c0.5,0.2,1,0.5,1.4,0.9c0.3,0.3,0.5,0.6,0.7,0.9s0.3,0.7,0.4,1.1
				c0.1,0.4,0.1,0.9,0.2,1.4c0,0.5,0,1.2,0,1.9c0,0.7,0,1.4,0,1.9c0,0.5-0.1,1-0.2,1.4s-0.2,0.7-0.4,1.1c-0.2,0.3-0.4,0.6-0.7,0.9
				c-0.4,0.4-0.9,0.7-1.4,0.9c-0.5,0.2-1.1,0.3-1.8,0.3s-1.3-0.1-1.8-0.3c-0.5-0.2-1-0.5-1.4-0.9c-0.3-0.3-0.5-0.6-0.7-0.9
				c-0.2-0.3-0.3-0.7-0.4-1.1c-0.1-0.4-0.1-0.9-0.2-1.4c0-0.5,0-1.2,0-1.9c0-0.7,0-1.4,0-1.9c0-0.5,0.1-1,0.2-1.4
				c0.1-0.4,0.2-0.7,0.4-1.1s0.4-0.6,0.7-0.9c0.4-0.4,0.9-0.7,1.4-0.9C584.5,307.1,585.1,307,585.8,307z M585.8,318.8
				c0.9,0,1.6-0.3,2.2-0.9c0.2-0.2,0.4-0.4,0.5-0.7c0.1-0.2,0.2-0.5,0.3-0.8s0.1-0.7,0.1-1.2c0-0.5,0-1,0-1.7c0-0.7,0-1.2,0-1.7
				c0-0.5-0.1-0.9-0.1-1.2c-0.1-0.3-0.2-0.6-0.3-0.8c-0.1-0.2-0.3-0.5-0.5-0.7c-0.6-0.6-1.3-0.9-2.2-0.9c-0.9,0-1.6,0.3-2.2,0.9
				c-0.2,0.2-0.4,0.4-0.5,0.7c-0.1,0.2-0.2,0.5-0.3,0.8c-0.1,0.3-0.1,0.7-0.1,1.2c0,0.5,0,1,0,1.7c0,0.7,0,1.2,0,1.7
				c0,0.5,0.1,0.9,0.1,1.2c0.1,0.3,0.2,0.6,0.3,0.8c0.1,0.2,0.3,0.5,0.5,0.7C584.1,318.5,584.9,318.8,585.8,318.8z"/>
			<path fill="#F15B5C" d="M508.7,329.5c0-0.1,0-0.2,0-0.3c0-0.1,0.1-0.2,0.2-0.3c0.1-0.1,0.2-0.2,0.3-0.2c0.1,0,0.2,0,0.3,0h4
				c0.6,0,1.1,0.1,1.6,0.3c0.5,0.2,0.9,0.4,1.3,0.8c0.4,0.3,0.6,0.7,0.8,1.2c0.2,0.5,0.3,1,0.3,1.6c0,0.6-0.1,1.1-0.3,1.6
				c-0.2,0.5-0.5,0.9-0.8,1.2c-0.3,0.3-0.8,0.6-1.3,0.8c-0.5,0.2-1,0.3-1.6,0.3h-3.4v4.4c0,0.2,0,0.3,0,0.4c0,0.1,0,0.2-0.1,0.3
				c-0.1,0.1-0.1,0.2-0.2,0.2c-0.1,0.1-0.2,0.1-0.3,0.1s-0.2,0-0.3-0.1c-0.1-0.1-0.2-0.1-0.2-0.2c-0.1-0.1-0.1-0.2-0.1-0.3
				c0-0.1,0-0.2,0-0.4V329.5z M510.1,329.9v5.1h3.3c0.4,0,0.8-0.1,1.1-0.2c0.3-0.1,0.6-0.3,0.9-0.5s0.4-0.5,0.5-0.8s0.2-0.7,0.2-1.1
				c0-0.4-0.1-0.8-0.2-1.1c-0.1-0.3-0.3-0.6-0.5-0.8s-0.5-0.4-0.9-0.5c-0.3-0.1-0.7-0.2-1.1-0.2H510.1z"/>
			<path fill="#F15B5C" d="M527.2,328.7c0.2,0,0.3,0,0.4,0c0.1,0,0.2,0,0.2,0.1c0.2,0.1,0.3,0.3,0.3,0.5c0,0.2-0.1,0.4-0.3,0.5
				c-0.1,0-0.1,0.1-0.2,0.1c-0.1,0-0.2,0-0.4,0h-5.8v4.5h4.8c0.2,0,0.3,0,0.4,0s0.2,0,0.2,0.1c0.2,0.1,0.3,0.3,0.3,0.5
				c0,0.2-0.1,0.4-0.3,0.5c-0.1,0-0.1,0.1-0.2,0.1c-0.1,0-0.2,0-0.4,0h-4.8v4.6h5.8c0.2,0,0.3,0,0.4,0c0.1,0,0.2,0,0.2,0.1
				c0.2,0.1,0.3,0.3,0.3,0.5s-0.1,0.4-0.3,0.5c-0.1,0-0.1,0.1-0.2,0.1c-0.1,0-0.2,0-0.4,0h-6.3c-0.1,0-0.2,0-0.3,0
				c-0.1,0-0.2-0.1-0.3-0.2s-0.2-0.2-0.2-0.3c0-0.1,0-0.2,0-0.3v-11.1c0-0.1,0-0.2,0-0.3c0-0.1,0.1-0.2,0.2-0.3
				c0.1-0.1,0.2-0.2,0.3-0.2c0.1,0,0.2,0,0.3,0H527.2z"/>
			<path fill="#F15B5C" d="M530.9,329.5c0-0.1,0-0.2,0-0.3c0-0.1,0.1-0.2,0.2-0.3c0.1-0.1,0.2-0.2,0.3-0.2c0.1,0,0.2,0,0.3,0h4.1
				c0.6,0,1.1,0.1,1.5,0.2c0.5,0.2,0.9,0.4,1.2,0.7c0.3,0.3,0.6,0.7,0.8,1.1c0.2,0.4,0.3,0.9,0.3,1.5c0,0.5-0.1,0.9-0.2,1.3
				s-0.3,0.7-0.6,1s-0.5,0.5-0.9,0.7s-0.7,0.3-1.1,0.4l2.7,4.6c0.1,0.1,0.1,0.3,0.2,0.4c0,0.1,0,0.2,0,0.3c0,0.2-0.1,0.4-0.4,0.5
				c-0.1,0.1-0.2,0.1-0.4,0.1c-0.2,0-0.3-0.1-0.4-0.2c-0.1-0.1-0.2-0.2-0.3-0.4l-3-5.2h-3.1v4.8c0,0.2,0,0.3,0,0.4
				c0,0.1,0,0.2-0.1,0.3c-0.1,0.1-0.1,0.2-0.2,0.2c-0.1,0.1-0.2,0.1-0.3,0.1s-0.2,0-0.3-0.1c-0.1-0.1-0.2-0.1-0.2-0.2
				c-0.1-0.1-0.1-0.2-0.1-0.3c0-0.1,0-0.2,0-0.4V329.5z M532.3,329.9v4.7h3.4c0.4,0,0.7,0,1-0.1c0.3-0.1,0.6-0.2,0.8-0.4
				c0.2-0.2,0.4-0.4,0.5-0.7c0.1-0.3,0.2-0.6,0.2-1s-0.1-0.7-0.2-1c-0.1-0.3-0.3-0.5-0.5-0.7c-0.2-0.2-0.5-0.3-0.8-0.4
				c-0.3-0.1-0.7-0.1-1-0.1H532.3z"/>
			<path fill="#F15B5C" d="M544.1,334.6h4.8c0.2,0,0.3,0,0.4,0c0.1,0,0.2,0,0.2,0.1c0.2,0.1,0.3,0.3,0.3,0.5s-0.1,0.4-0.3,0.5
				c-0.1,0-0.1,0.1-0.2,0.1s-0.2,0-0.4,0h-4.8v4.8c0,0.2,0,0.3,0,0.4c0,0.1,0,0.2-0.1,0.3c-0.1,0.1-0.1,0.2-0.2,0.2
				c-0.1,0.1-0.2,0.1-0.3,0.1s-0.2,0-0.3-0.1c-0.1-0.1-0.2-0.1-0.2-0.2c-0.1-0.1-0.1-0.2-0.1-0.3c0-0.1,0-0.2,0-0.4v-11.1
				c0-0.1,0-0.2,0-0.3c0-0.1,0.1-0.2,0.2-0.3c0.1-0.1,0.2-0.2,0.3-0.2c0.1,0,0.2,0,0.3,0h6.3c0.2,0,0.3,0,0.4,0s0.1,0,0.2,0.1
				c0.2,0.1,0.3,0.3,0.3,0.5c0,0.2-0.1,0.4-0.3,0.5c-0.1,0-0.1,0.1-0.2,0.1c-0.1,0-0.2,0-0.4,0h-5.8V334.6z"/>
			<path fill="#F15B5C" d="M556.8,328.6c0.7,0,1.3,0.1,1.8,0.3c0.5,0.2,1,0.5,1.4,0.9c0.3,0.3,0.5,0.6,0.7,0.9
				c0.2,0.3,0.3,0.7,0.4,1.1c0.1,0.4,0.1,0.9,0.2,1.4c0,0.5,0,1.2,0,1.9c0,0.7,0,1.4,0,1.9c0,0.5-0.1,1-0.2,1.4
				c-0.1,0.4-0.2,0.7-0.4,1.1c-0.2,0.3-0.4,0.6-0.7,0.9c-0.4,0.4-0.9,0.7-1.4,0.9c-0.5,0.2-1.1,0.3-1.8,0.3s-1.3-0.1-1.8-0.3
				c-0.5-0.2-1-0.5-1.4-0.9c-0.3-0.3-0.5-0.6-0.7-0.9c-0.2-0.3-0.3-0.7-0.4-1.1c-0.1-0.4-0.1-0.9-0.2-1.4c0-0.5,0-1.2,0-1.9
				c0-0.7,0-1.4,0-1.9c0-0.5,0.1-1,0.2-1.4c0.1-0.4,0.2-0.7,0.4-1.1c0.2-0.3,0.4-0.6,0.7-0.9c0.4-0.4,0.9-0.7,1.4-0.9
				C555.5,328.7,556.1,328.6,556.8,328.6z M556.8,340.4c0.9,0,1.6-0.3,2.2-0.9c0.2-0.2,0.4-0.4,0.5-0.7c0.1-0.2,0.2-0.5,0.3-0.8
				c0.1-0.3,0.1-0.7,0.1-1.2s0-1,0-1.7s0-1.2,0-1.7c0-0.5-0.1-0.9-0.1-1.2c-0.1-0.3-0.2-0.6-0.3-0.8c-0.1-0.2-0.3-0.5-0.5-0.7
				c-0.6-0.6-1.3-0.9-2.2-0.9c-0.9,0-1.6,0.3-2.2,0.9c-0.2,0.2-0.4,0.4-0.5,0.7c-0.1,0.2-0.2,0.5-0.3,0.8s-0.1,0.7-0.1,1.2
				c0,0.5,0,1,0,1.7s0,1.2,0,1.7c0,0.5,0.1,0.9,0.1,1.2s0.2,0.6,0.3,0.8c0.1,0.2,0.3,0.5,0.5,0.7
				C555.2,340.1,555.9,340.4,556.8,340.4z"/>
			<path fill="#F15B5C" d="M564.5,329.5c0-0.1,0-0.2,0-0.3s0.1-0.2,0.2-0.3c0.1-0.1,0.2-0.2,0.3-0.2s0.2,0,0.3,0h4.1
				c0.6,0,1.1,0.1,1.5,0.2c0.5,0.2,0.9,0.4,1.2,0.7s0.6,0.7,0.8,1.1c0.2,0.4,0.3,0.9,0.3,1.5c0,0.5-0.1,0.9-0.2,1.3s-0.3,0.7-0.6,1
				c-0.2,0.3-0.5,0.5-0.9,0.7s-0.7,0.3-1.1,0.4l2.7,4.6c0.1,0.1,0.1,0.3,0.2,0.4s0,0.2,0,0.3c0,0.2-0.1,0.4-0.4,0.5
				c-0.1,0.1-0.2,0.1-0.4,0.1c-0.2,0-0.3-0.1-0.4-0.2c-0.1-0.1-0.2-0.2-0.3-0.4l-3-5.2h-3.1v4.8c0,0.2,0,0.3,0,0.4s0,0.2-0.1,0.3
				s-0.1,0.2-0.2,0.2c-0.1,0.1-0.2,0.1-0.3,0.1c-0.1,0-0.2,0-0.3-0.1c-0.1-0.1-0.2-0.1-0.2-0.2s-0.1-0.2-0.1-0.3s0-0.2,0-0.4V329.5z
				 M565.9,329.9v4.7h3.4c0.4,0,0.7,0,1-0.1c0.3-0.1,0.6-0.2,0.8-0.4c0.2-0.2,0.4-0.4,0.5-0.7c0.1-0.3,0.2-0.6,0.2-1s-0.1-0.7-0.2-1
				s-0.3-0.5-0.5-0.7c-0.2-0.2-0.5-0.3-0.8-0.4c-0.3-0.1-0.7-0.1-1-0.1H565.9z"/>
			<path fill="#F15B5C" d="M581.8,339.6c-0.2,0-0.4-0.1-0.5-0.2c-0.1-0.1-0.2-0.3-0.3-0.5l-3.3-7.1v8.8c0,0.2,0,0.3,0,0.4
				s0,0.2-0.1,0.3s-0.1,0.2-0.2,0.2c-0.1,0.1-0.2,0.1-0.3,0.1c-0.1,0-0.2,0-0.3-0.1c-0.1-0.1-0.2-0.1-0.2-0.2s-0.1-0.2-0.1-0.3
				s0-0.2,0-0.4v-11.1c0-0.1,0-0.3,0-0.4s0.1-0.2,0.2-0.3c0.1-0.1,0.1-0.1,0.2-0.2s0.2,0,0.3,0s0.2,0,0.2,0c0.1,0,0.1,0,0.2,0.1
				c0.1,0.1,0.3,0.2,0.4,0.5l4,8.6l4-8.6c0.1-0.2,0.2-0.4,0.4-0.5c0.1,0,0.1-0.1,0.2-0.1c0.1,0,0.1,0,0.2,0s0.2,0,0.3,0
				c0.1,0,0.2,0.1,0.2,0.2c0.1,0.1,0.1,0.2,0.2,0.3c0,0.1,0,0.2,0,0.4v11.1c0,0.2,0,0.3,0,0.4c0,0.1,0,0.2-0.1,0.3
				c-0.1,0.1-0.1,0.2-0.2,0.2c-0.1,0.1-0.2,0.1-0.3,0.1s-0.2,0-0.3-0.1c-0.1-0.1-0.2-0.1-0.2-0.2c-0.1-0.1-0.1-0.2-0.1-0.3
				c0-0.1,0-0.2,0-0.4v-8.8l-3.3,7.1c-0.1,0.2-0.2,0.4-0.3,0.5C582.2,339.5,582,339.6,581.8,339.6z"/>
		</g>
	</g>
	<g>
		<g>
			<path fill="#39D1B4" d="M393,200.7c-0.2,0-0.5-0.1-0.7-0.1c-0.2-0.1-0.4-0.1-0.6-0.2c-0.2-0.1-0.4-0.2-0.5-0.3
				c-0.2-0.1-0.3-0.2-0.5-0.4c-0.3-0.3-0.6-0.6-0.8-1s-0.2-0.8-0.2-1.4c0-0.5,0.1-1,0.3-1.5s0.5-0.8,0.8-1.1
				c0.4-0.3,0.8-0.6,1.3-0.7c0.5-0.2,1.1-0.3,1.7-0.3c0.3,0,0.6,0,0.9,0c0.3,0,0.5,0.1,0.8,0.2c0.2,0.1,0.5,0.2,0.7,0.3
				c0.2,0.1,0.5,0.3,0.8,0.4c0.1,0.1,0.3,0.2,0.4,0.3c0.1,0.1,0.2,0.2,0.2,0.4c0,0.2-0.1,0.3-0.2,0.4c-0.1,0.1-0.3,0.2-0.4,0.2
				c-0.1,0-0.2,0-0.3-0.1c-0.1,0-0.2-0.1-0.3-0.2c-0.2-0.1-0.4-0.3-0.6-0.4c-0.2-0.1-0.4-0.2-0.6-0.2c-0.2-0.1-0.4-0.1-0.6-0.1
				c-0.2,0-0.5,0-0.7,0c-0.4,0-0.8,0.1-1.2,0.2c-0.3,0.1-0.6,0.3-0.9,0.5s-0.4,0.5-0.5,0.7s-0.2,0.6-0.2,1c0,0.3,0,0.6,0.1,0.9
				c0.1,0.3,0.2,0.5,0.5,0.6c0.1,0.1,0.2,0.2,0.3,0.3c0.1,0.1,0.2,0.1,0.4,0.2c0.1,0.1,0.3,0.1,0.4,0.1s0.3,0.1,0.6,0.1l1.4,0.2
				c0.3,0,0.6,0.1,0.8,0.2c0.2,0.1,0.4,0.1,0.6,0.2c0.2,0.1,0.4,0.2,0.5,0.2c0.1,0.1,0.3,0.2,0.4,0.3c0.3,0.3,0.6,0.7,0.8,1.1
				s0.3,0.9,0.3,1.4c0,0.6-0.1,1.1-0.3,1.5c-0.2,0.5-0.5,0.8-0.9,1.1c-0.4,0.3-0.9,0.6-1.4,0.7s-1.2,0.3-1.8,0.3
				c-0.4,0-0.8,0-1.1-0.1c-0.3,0-0.6-0.1-0.9-0.2c-0.3-0.1-0.6-0.2-0.8-0.3c-0.3-0.1-0.5-0.3-0.8-0.5c-0.2-0.1-0.3-0.2-0.4-0.4
				c-0.1-0.1-0.2-0.3-0.2-0.4c0-0.1,0-0.2,0-0.2c0-0.1,0.1-0.2,0.1-0.2c0.1-0.1,0.3-0.2,0.4-0.2c0.1,0,0.2,0,0.3,0.1
				c0.1,0,0.2,0.1,0.4,0.2c0.2,0.2,0.5,0.3,0.7,0.5c0.2,0.1,0.5,0.2,0.7,0.3s0.5,0.1,0.8,0.2s0.6,0.1,0.9,0.1c0.5,0,0.9-0.1,1.3-0.2
				s0.7-0.3,1-0.5c0.3-0.2,0.5-0.5,0.6-0.7c0.1-0.3,0.2-0.6,0.2-1c0-0.3-0.1-0.6-0.2-0.9c-0.1-0.3-0.3-0.5-0.5-0.7
				c-0.1-0.1-0.2-0.2-0.3-0.2s-0.2-0.1-0.3-0.2s-0.3-0.1-0.4-0.1s-0.4-0.1-0.6-0.1L393,200.7z"/>
			<path fill="#39D1B4" d="M408.2,193.8c0.2,0,0.3,0,0.4,0c0.1,0,0.2,0,0.2,0.1c0.2,0.1,0.3,0.3,0.3,0.5c0,0.2-0.1,0.4-0.3,0.5
				c-0.1,0-0.1,0.1-0.2,0.1c-0.1,0-0.2,0-0.4,0h-5.8v4.5h4.8c0.2,0,0.3,0,0.4,0c0.1,0,0.2,0,0.2,0.1c0.2,0.1,0.3,0.3,0.3,0.5
				s-0.1,0.4-0.3,0.5c-0.1,0-0.1,0.1-0.2,0.1c-0.1,0-0.2,0-0.4,0h-4.8v4.6h5.8c0.2,0,0.3,0,0.4,0c0.1,0,0.2,0,0.2,0.1
				c0.2,0.1,0.3,0.3,0.3,0.5c0,0.2-0.1,0.4-0.3,0.5c-0.1,0-0.1,0.1-0.2,0.1c-0.1,0-0.2,0-0.4,0h-6.3c-0.1,0-0.2,0-0.3,0
				c-0.1,0-0.2-0.1-0.3-0.2c-0.1-0.1-0.2-0.2-0.2-0.3c0-0.1,0-0.2,0-0.3v-11.1c0-0.1,0-0.2,0-0.3c0-0.1,0.1-0.2,0.2-0.3
				c0.1-0.1,0.2-0.2,0.3-0.2c0.1,0,0.2,0,0.3,0H408.2z"/>
			<path fill="#39D1B4" d="M412.6,206.6c-0.1,0-0.2,0-0.3,0c-0.1,0-0.2-0.1-0.3-0.2c-0.1-0.1-0.2-0.2-0.2-0.3c0-0.1,0-0.2,0-0.3
				v-11.1c0-0.2,0-0.3,0-0.4c0-0.1,0-0.2,0.1-0.3c0.1-0.1,0.1-0.2,0.2-0.2c0.1-0.1,0.2-0.1,0.3-0.1s0.2,0,0.3,0.1
				c0.1,0.1,0.2,0.1,0.2,0.2c0.1,0.1,0.1,0.2,0.1,0.3c0,0.1,0,0.2,0,0.4v10.7h5.7c0.2,0,0.3,0,0.4,0c0.1,0,0.1,0,0.2,0.1
				c0.2,0.1,0.3,0.3,0.3,0.5c0,0.2-0.1,0.4-0.3,0.5c-0.1,0-0.1,0.1-0.2,0.1c-0.1,0-0.2,0-0.4,0H412.6z"/>
			<path fill="#39D1B4" d="M429.3,193.8c0.2,0,0.3,0,0.4,0c0.1,0,0.2,0,0.2,0.1c0.2,0.1,0.3,0.3,0.3,0.5c0,0.2-0.1,0.4-0.3,0.5
				c-0.1,0-0.1,0.1-0.2,0.1c-0.1,0-0.2,0-0.4,0h-5.8v4.5h4.8c0.2,0,0.3,0,0.4,0c0.1,0,0.2,0,0.2,0.1c0.2,0.1,0.3,0.3,0.3,0.5
				s-0.1,0.4-0.3,0.5c-0.1,0-0.1,0.1-0.2,0.1c-0.1,0-0.2,0-0.4,0h-4.8v4.6h5.8c0.2,0,0.3,0,0.4,0c0.1,0,0.2,0,0.2,0.1
				c0.2,0.1,0.3,0.3,0.3,0.5c0,0.2-0.1,0.4-0.3,0.5c-0.1,0-0.1,0.1-0.2,0.1c-0.1,0-0.2,0-0.4,0h-6.3c-0.1,0-0.2,0-0.3,0
				c-0.1,0-0.2-0.1-0.3-0.2c-0.1-0.1-0.2-0.2-0.2-0.3c0-0.1,0-0.2,0-0.3v-11.1c0-0.1,0-0.2,0-0.3c0-0.1,0.1-0.2,0.2-0.3
				c0.1-0.1,0.2-0.2,0.3-0.2c0.1,0,0.2,0,0.3,0H429.3z"/>
			<path fill="#39D1B4" d="M432.4,200.2c0-0.7,0-1.4,0-1.9s0.1-1,0.2-1.4c0.1-0.4,0.2-0.7,0.4-1.1c0.2-0.3,0.4-0.6,0.7-0.9
				c0.4-0.4,0.9-0.7,1.4-0.9c0.5-0.2,1.1-0.3,1.8-0.3c0.4,0,0.8,0,1.1,0.1c0.3,0.1,0.7,0.2,0.9,0.3c0.3,0.1,0.5,0.3,0.8,0.5
				c0.2,0.2,0.4,0.4,0.6,0.6c0.1,0.2,0.3,0.3,0.4,0.5c0.1,0.2,0.2,0.3,0.3,0.5s0.1,0.3,0.2,0.5c0,0.1,0.1,0.3,0.1,0.4
				c0,0.2-0.1,0.4-0.2,0.5c-0.1,0.1-0.3,0.2-0.5,0.2c-0.2,0-0.3,0-0.4-0.1c-0.1-0.1-0.1-0.1-0.2-0.2c-0.1-0.1-0.1-0.2-0.1-0.3
				c-0.2-0.7-0.6-1.2-1.1-1.6c-0.5-0.4-1.1-0.6-1.8-0.6c-0.9,0-1.6,0.3-2.2,0.9c-0.2,0.2-0.4,0.4-0.5,0.7s-0.2,0.5-0.3,0.9
				c-0.1,0.3-0.1,0.7-0.1,1.2c0,0.5,0,1,0,1.7c0,0.6,0,1.2,0,1.7c0,0.5,0.1,0.9,0.1,1.2c0.1,0.3,0.2,0.6,0.3,0.9
				c0.1,0.2,0.3,0.5,0.5,0.7c0.6,0.6,1.3,0.9,2.2,0.9c0.7,0,1.3-0.2,1.8-0.6s0.8-0.9,1.1-1.6c0-0.1,0.1-0.2,0.1-0.3
				c0.1-0.1,0.1-0.2,0.2-0.2c0.1-0.1,0.2-0.1,0.4-0.1c0.2,0,0.3,0.1,0.5,0.2c0.1,0.1,0.2,0.3,0.2,0.5c0,0.1,0,0.2-0.1,0.4
				c0,0.1-0.1,0.3-0.2,0.5s-0.2,0.3-0.3,0.5c-0.1,0.2-0.2,0.3-0.4,0.5c-0.2,0.2-0.4,0.4-0.6,0.6c-0.2,0.2-0.5,0.4-0.8,0.5
				c-0.3,0.1-0.6,0.2-0.9,0.3c-0.3,0.1-0.7,0.1-1.1,0.1c-0.7,0-1.3-0.1-1.8-0.3c-0.5-0.2-1-0.5-1.4-0.9c-0.3-0.3-0.5-0.6-0.7-0.9
				c-0.2-0.3-0.3-0.7-0.4-1.1s-0.1-0.9-0.2-1.4C432.4,201.6,432.4,200.9,432.4,200.2z"/>
			<path fill="#39D1B4" d="M450.7,193.8c0.2,0,0.3,0,0.4,0c0.1,0,0.1,0,0.2,0.1c0.2,0.1,0.3,0.3,0.3,0.5c0,0.2-0.1,0.4-0.3,0.5
				c-0.1,0-0.1,0.1-0.2,0.1c-0.1,0-0.2,0-0.4,0h-2.9v10.7c0,0.2,0,0.3,0,0.4c0,0.1,0,0.2-0.1,0.3s-0.1,0.2-0.2,0.2
				c-0.1,0.1-0.2,0.1-0.3,0.1s-0.2,0-0.3-0.1c-0.1-0.1-0.2-0.1-0.2-0.2c-0.1-0.1-0.1-0.2-0.1-0.3c0-0.1,0-0.2,0-0.4V195h-2.9
				c-0.2,0-0.3,0-0.4,0c-0.1,0-0.2,0-0.2-0.1c-0.2-0.1-0.3-0.3-0.3-0.5c0-0.2,0.1-0.4,0.3-0.5c0.1,0,0.1-0.1,0.2-0.1
				c0.1,0,0.2,0,0.4,0H450.7z"/>
			<path fill="#39D1B4" d="M457.3,193.7c0.7,0,1.3,0.1,1.8,0.3s1,0.5,1.4,0.9c0.3,0.3,0.5,0.6,0.7,0.9c0.2,0.3,0.3,0.7,0.4,1.1
				c0.1,0.4,0.1,0.9,0.2,1.4c0,0.5,0,1.2,0,1.9c0,0.7,0,1.4,0,1.9c0,0.5-0.1,1-0.2,1.4c-0.1,0.4-0.2,0.7-0.4,1.1
				c-0.2,0.3-0.4,0.6-0.7,0.9c-0.4,0.4-0.9,0.7-1.4,0.9c-0.5,0.2-1.1,0.3-1.8,0.3c-0.7,0-1.3-0.1-1.8-0.3c-0.5-0.2-1-0.5-1.4-0.9
				c-0.3-0.3-0.5-0.6-0.7-0.9c-0.2-0.3-0.3-0.7-0.4-1.1s-0.1-0.9-0.2-1.4c0-0.5,0-1.2,0-1.9c0-0.7,0-1.4,0-1.9s0.1-1,0.2-1.4
				c0.1-0.4,0.2-0.7,0.4-1.1c0.2-0.3,0.4-0.6,0.7-0.9c0.4-0.4,0.9-0.7,1.4-0.9C456,193.8,456.6,193.7,457.3,193.7z M457.3,205.5
				c0.9,0,1.6-0.3,2.2-0.9c0.2-0.2,0.4-0.4,0.5-0.7c0.1-0.2,0.2-0.5,0.3-0.8c0.1-0.3,0.1-0.7,0.1-1.2c0-0.5,0-1,0-1.7s0-1.2,0-1.7
				s-0.1-0.9-0.1-1.2c-0.1-0.3-0.2-0.6-0.3-0.8c-0.1-0.2-0.3-0.5-0.5-0.7c-0.6-0.6-1.3-0.9-2.2-0.9s-1.6,0.3-2.2,0.9
				c-0.2,0.2-0.4,0.4-0.5,0.7s-0.2,0.5-0.3,0.8s-0.1,0.7-0.1,1.2s0,1,0,1.7s0,1.2,0,1.7c0,0.5,0.1,0.9,0.1,1.2s0.2,0.6,0.3,0.8
				s0.3,0.5,0.5,0.7C455.6,205.2,456.4,205.5,457.3,205.5z"/>
			<path fill="#39D1B4" d="M465,194.6c0-0.1,0-0.2,0-0.3c0-0.1,0.1-0.2,0.2-0.3c0.1-0.1,0.2-0.2,0.3-0.2c0.1,0,0.2,0,0.3,0h4.1
				c0.6,0,1.1,0.1,1.5,0.2c0.5,0.2,0.9,0.4,1.2,0.7c0.3,0.3,0.6,0.7,0.8,1.1s0.3,0.9,0.3,1.5c0,0.5-0.1,0.9-0.2,1.3
				c-0.1,0.4-0.3,0.7-0.6,1s-0.5,0.5-0.9,0.7s-0.7,0.3-1.1,0.4l2.7,4.6c0.1,0.1,0.1,0.3,0.2,0.4c0,0.1,0,0.2,0,0.3
				c0,0.2-0.1,0.4-0.4,0.5c-0.1,0.1-0.2,0.1-0.4,0.1c-0.2,0-0.3-0.1-0.4-0.2c-0.1-0.1-0.2-0.2-0.3-0.4l-3-5.2h-3.1v4.8
				c0,0.2,0,0.3,0,0.4c0,0.1,0,0.2-0.1,0.3c-0.1,0.1-0.1,0.2-0.2,0.2s-0.2,0.1-0.3,0.1c-0.1,0-0.2,0-0.3-0.1s-0.2-0.1-0.2-0.2
				s-0.1-0.2-0.1-0.3s0-0.2,0-0.4V194.6z M466.4,195v4.7h3.4c0.4,0,0.7,0,1-0.1c0.3-0.1,0.6-0.2,0.8-0.4c0.2-0.2,0.4-0.4,0.5-0.7
				c0.1-0.3,0.2-0.6,0.2-1c0-0.4-0.1-0.7-0.2-1s-0.3-0.5-0.5-0.7c-0.2-0.2-0.5-0.3-0.8-0.4c-0.3-0.1-0.7-0.1-1-0.1H466.4z"/>
		</g>
	</g>
	<line fill="none" stroke="#F15B5C" stroke-miterlimit="10" x1="503" y1="287.5" x2="593" y2="287.5"/>
	<line fill="none" stroke="#39D1B4" stroke-miterlimit="10" x1="366" y1="225.5" x2="499" y2="225.5"/>
</g>
</svg>
